<svg width="167" height="154" viewBox="0 0 167 154" fill="none" xmlns="http://www.w3.org/2000/svg">
<path d="M93.6503 89.1492C92.2703 90.1434 91.7528 90.0854 90.7178 88.7598C90.6621 88.6512 90.5689 88.5645 90.454 88.5146C90.3391 88.4647 90.2098 88.4547 90.0881 88.4864C88.4925 88.7929 87.6904 88.4367 87.5006 87.2851C87.3842 86.3812 87.4814 85.4636 87.7853 84.6008C88.1475 83.7723 88.872 83.4989 90.5021 83.4658C91.3646 83.4078 92.2875 83.3001 93.15 83.3001C94.0125 83.3001 94.2971 82.6373 94.4093 81.9165C94.806 79.4311 93.8573 80.8147 89.5275 79.9862C88.9583 79.8785 88.32 79.6548 88.4408 78.934C88.5615 78.2132 89.2429 78.2215 89.8121 78.3292C91.1292 78.471 92.4547 78.5264 93.7796 78.4949C95.323 78.5059 96.857 78.265 98.3164 77.7824C98.8559 77.5762 99.4168 77.4262 99.9896 77.335C102.103 77.0948 102.914 74.6673 101.939 74.0791C101.594 73.9134 101.309 73.7477 100.964 73.582C99.634 73.0138 98.4546 72.1642 97.5142 71.0966C97.3417 71.2623 97.4021 71.428 97.4021 71.5937C97.3418 72.4801 96.8243 72.9772 95.91 72.8115C95.0532 72.6636 94.2677 72.2573 93.6675 71.6517C93.15 71.0966 92.7446 71.1546 92.2875 71.7097C92.115 71.9251 91.9425 72.041 91.77 72.2564C90.8471 73.2506 89.7 72.7038 89.1308 71.983C88.807 71.5821 88.5945 71.1088 88.513 70.6075C88.4316 70.1061 88.4839 69.5931 88.665 69.1165C89.0183 67.9501 89.6707 66.8876 90.5625 66.0263C91.0038 65.6155 91.5673 65.347 92.1747 65.2579C92.7821 65.1688 93.4034 65.2636 93.9521 65.5292C96.0825 66.2997 98.2042 65.8026 100.335 65.5292C102.302 65.1768 104.313 65.1014 106.303 65.3055C108.373 65.6369 109.641 67.0702 110.788 68.5614C113.488 72.1487 112.858 78.8263 109.529 81.7011C108.825 82.3088 108.028 82.809 107.166 83.1841C106.827 83.3578 106.432 83.4031 106.06 83.3111C105.688 83.2191 105.365 82.9964 105.156 82.687C104.414 81.7011 103.776 80.2596 105.277 79.1577C105.53 78.9326 105.732 78.6596 105.87 78.3559C106.008 78.0522 106.079 77.7244 106.079 77.393C106.131 76.5645 105.561 76.1752 104.871 76.6225C103.833 77.1674 102.962 77.9644 102.344 78.934C101.469 80.412 100.364 81.7531 99.0668 82.9107C98.226 83.7737 97.6499 84.8432 97.4021 86.001C96.7811 88.7349 95.289 91.4606 93.6503 89.1492Z" fill="#FADF8F"/>
<path d="M139.613 70.3261C138.069 70.3134 136.565 69.8512 135.3 69.0005C132.54 67.2939 129.608 65.8026 126.969 63.9219C126.106 63.3171 126.106 62.6046 127.141 62.1573C128.732 61.466 130.22 60.5744 131.566 59.5061C133.636 57.9651 140.07 53.0523 141.217 52.1161C143.209 50.5171 146.28 52.3812 148.169 52.9446C149.782 53.3836 151.498 53.3837 153.171 53.773C155.008 54.2121 155.923 55.2643 155.578 56.8053C155.405 57.7415 154.663 58.3545 154.086 59.125C152.766 60.782 151.101 62.0496 149.721 63.6485C147.384 66.3328 143.244 70.3261 139.613 70.3261Z" fill="#FADF8F"/>
<path d="M48.6622 16.2926C48.4207 17.991 49.792 19.3083 48.7139 19.8799C48.1964 20.1533 47.9118 19.7722 47.5668 19.4408C42.6764 13.2438 39.4162 9.06822 39.235 8.93566C38.6572 8.33087 38.545 8.33087 38.2 9.10136C38.1093 9.30089 38.0315 9.50565 37.9672 9.71444C37.9312 9.89423 37.8343 10.0575 37.6916 10.1788C37.5488 10.3001 37.3682 10.3726 37.1781 10.3849C36.9879 10.3972 36.7989 10.3486 36.6405 10.2468C36.4821 10.145 36.3632 9.99568 36.3025 9.82214C35.5608 8.72026 35.1554 7.45268 34.405 6.40051C33.9926 5.90501 33.7879 5.27937 33.831 4.64633C33.874 4.0133 34.1619 3.41858 34.6379 2.97888C35.1124 2.3579 35.5529 1.71357 35.9575 1.04852C36.475 0.32774 37.1047 0.32774 37.5704 1.04852C37.9672 1.59532 38.2604 2.2581 38.6572 2.87118C38.8297 3.20257 39.0022 3.41798 39.5197 3.08658C40.0372 2.75519 40.7875 2.87118 41.3568 3.69966C42.9179 5.85371 44.479 8.44686 45.9022 9.88013C46.3593 10.3772 46.6439 10.4269 47.0493 9.82214C47.5668 8.99366 48.2568 8.88595 48.9468 9.65644C50.3785 11.2554 51.7585 12.9124 53.1385 14.5693C57.6235 19.8136 59.0294 20.9901 59.2882 21.3546C59.4067 21.5095 59.4656 21.6991 59.4546 21.8911C59.4436 22.0831 59.3634 22.2654 59.2278 22.4068C59.0985 22.5463 58.9169 22.6308 58.7228 22.6417C58.5287 22.6525 58.338 22.5889 58.1928 22.4648C52.69 19.1508 56.2435 21.6363 49.4643 16.7731C49.1624 16.4583 48.9468 16.2926 48.6622 16.2926Z" fill="#FADF8F"/>
<path d="M61.3582 29.5979C61.0995 27.883 61.9447 25.1655 65.9208 23.3263C67.2635 22.6591 68.7363 22.2681 70.2451 22.1782C71.7539 22.0884 73.2656 22.3016 74.6838 22.8044C75.6149 23.1657 76.3985 23.808 76.9166 24.6343C77.4346 25.4607 77.659 26.4264 77.556 27.3859C77.556 27.7753 77.3317 27.8333 76.9867 27.8333C75.959 27.9151 74.9246 27.8025 73.9421 27.5019C71.415 26.6734 70.38 27.1125 69.1121 29.4322C68.4073 30.6343 67.8487 31.9103 67.4475 33.235C67.3548 33.5782 67.3169 33.933 67.3353 34.2871C67.3618 34.453 67.3501 34.6223 67.3013 34.7834C67.2524 34.9445 67.1675 35.0934 67.0525 35.2196C66.9375 35.3459 66.7951 35.4465 66.6354 35.5144C66.4757 35.5823 66.3025 35.6158 66.1278 35.6127C65.4657 35.7505 64.7756 35.692 64.1488 35.445C63.522 35.1979 62.988 34.774 62.6175 34.2291C61.74 32.835 61.3025 31.2262 61.3582 29.5979Z" fill="#FADF8F"/>
<path d="M63.6525 12.2495C62.2725 13.4508 62.1086 14.6273 61.0132 14.5113C60.4957 14.4533 60.3232 14.0142 60.2628 13.6248C59.6332 10.8163 59.1761 7.99944 58.8311 5.1826C58.8021 5.01998 58.8188 4.85287 58.8795 4.69851C58.9401 4.54415 59.0425 4.40811 59.1761 4.30441C59.7947 3.71362 60.5119 3.22638 61.2978 2.86285C62.1603 2.42376 62.9107 2.92085 62.9625 3.85703C63.0142 4.79321 63.1953 5.84539 63.3075 6.78157C63.3678 7.33665 63.6525 7.44435 64.1182 7.17096C64.4478 6.9503 64.7905 6.74836 65.1446 6.56616C65.895 6.11878 66.4125 6.34247 66.585 7.17096C66.7747 7.53549 66.8092 19.507 66.8178 19.5982C66.8696 20.0373 66.7575 20.4764 66.24 20.5344C65.7225 20.5924 65.55 20.0953 65.4896 19.6562C64.3166 14.5527 63.9371 12.8046 63.6525 12.2495Z" fill="#FADF8F"/>
<path d="M15.4473 101.237C10.6173 101.676 6.08053 100.516 1.4834 99.4141C-0.0345996 99.0496 -0.784975 95.8682 1.19878 94.6669C3.44128 93.3413 5.7959 92.6785 8.37478 93.507C9.64265 93.8964 10.0998 93.7307 10.9105 92.7365C11.1576 92.4364 11.3879 92.1239 11.6005 91.8003C12.4027 90.3671 13.7826 89.9777 15.3351 89.812C17.004 89.5964 18.6978 89.9671 20.1048 90.8559C23.2098 92.9271 24.745 88.793 28.3762 87.7159C28.9797 87.4794 29.6222 87.3475 30.2736 87.3265C34.4654 87.3265 37.7947 88.7598 39.8129 92.4631C40.1315 93.1811 40.6857 93.7793 41.3911 94.1667C42.0964 94.5541 42.9143 94.7093 43.72 94.6089C45.4589 94.489 47.2064 94.6401 48.895 95.0563C49.2236 95.1124 49.5264 95.264 49.7624 95.4907C49.9984 95.7174 50.1562 96.0082 50.2146 96.3239C50.3354 96.9866 49.8697 97.4257 49.3004 97.7571C46.5218 99.6748 43.1826 100.698 39.7612 100.682C35.9662 100.74 32.1798 100.682 28.3848 100.847C25.7973 100.963 23.2098 100.847 20.6223 101.013C18.9071 101.23 17.1758 101.305 15.4473 101.237Z" fill="#F4B77D"/>
<path d="M53.2506 51.1881C50.6028 54.1375 43.5389 62.1738 39.4506 67.1861C38.7606 68.0726 38.2431 69.1744 37.0356 69.6218C36.8822 69.7201 36.6953 69.7577 36.5137 69.7268C36.3321 69.696 36.17 69.599 36.061 69.4561C35.3345 68.5913 34.5448 67.7773 33.6978 67.0204C33.3528 66.6973 33.4735 66.4736 33.6978 66.1919C42.3228 56.3081 37.648 61.6435 46.1695 52.2237C46.3574 51.9836 46.601 51.7889 46.881 51.6552C47.161 51.5214 47.4697 51.4523 47.7824 51.4532C49.5764 51.3952 51.3618 51.2875 53.2506 51.1881Z" fill="#F4B77D"/>
<path d="M23.9515 67.6749C24.5853 66.6927 25.3381 65.7861 26.194 64.9741C29.7562 60.9974 33.37 57.1366 36.8804 53.1599C37.2335 52.6835 37.7115 52.3054 38.2659 52.0638C38.8204 51.8223 39.4314 51.726 40.0372 51.7847C41.65 51.8924 43.2025 51.503 44.9275 51.6687C44.6215 52.2033 44.2317 52.6895 43.7718 53.1102C40.1579 57.0289 36.5958 60.9974 33.2579 65.1978C32.9129 65.6369 32.6283 66.076 31.8779 65.7446C31.4208 65.5789 30.7912 65.8606 30.2133 66.0263L23.9515 67.6749Z" fill="#F4B77D"/>
<path d="M61.2977 50.5171C54.7255 57.816 53.2334 59.6304 49.4642 64.3693C49.0647 64.8694 48.5267 65.2513 47.9117 65.4712C39.994 68.2963 40.4339 68.4869 39.9854 68.23C40.4942 67.3021 39.8818 68.1389 53.7853 52.2238C54.1463 51.7908 54.6009 51.4384 55.1177 51.1909C55.6345 50.9435 56.201 50.8068 56.7782 50.7905C58.2531 50.7325 59.7452 50.6248 61.2977 50.5171Z" fill="#F4B77D"/>
<path d="M14.4727 70.0527C16.9739 67.2027 29.9977 53.4002 30.7912 52.6545C30.9341 52.4824 31.1191 52.3469 31.3298 52.2602C31.5405 52.1734 31.7703 52.1381 31.9987 52.1575C33.4555 52.1797 34.9125 52.1244 36.3629 51.9918C36.0735 52.549 35.6853 53.0536 35.2158 53.483C30.8429 58.1308 26.6512 62.9857 22.4249 67.8406C22.2424 68.0974 21.9796 68.2918 21.6745 68.3957C19.3956 69.102 17.074 69.6748 14.7228 70.1107C14.6624 70.1604 14.6624 70.1107 14.4727 70.0527Z" fill="#F4B77D"/>
<path d="M43.2025 34.3948C44.41 34.7262 45.4968 34.9499 46.6525 35.3393C47.17 35.505 46.7733 35.7784 46.6008 35.9441C42.1416 40.0865 38.7434 42.9116 33.3269 48.4707C33.1544 48.6364 33.0336 48.9678 32.749 48.9098C32.4644 48.8518 32.5248 48.5287 32.4644 48.363C32.059 47.2032 31.714 45.9853 31.3173 44.8254C31.2508 44.6754 31.2367 44.5088 31.2771 44.3504C31.3175 44.1921 31.4103 44.0506 31.5415 43.9472L41.995 35.0576C42.3918 34.7262 42.7368 34.3948 43.2025 34.3948Z" fill="#F4B77D"/>
<path d="M40.9601 49.0755C46.5146 43.4087 45.1432 44.8586 52.3968 37.7668C52.854 37.3194 53.199 37.2117 53.7682 37.6508C54.579 38.2638 55.3811 38.7609 56.2436 39.3077C56.8215 39.6391 56.9336 39.9125 56.3557 40.4676C48.9727 47.7748 49.4557 47.2114 49.1711 47.7002C48.0757 49.3572 46.644 48.7027 40.9601 49.0755Z" fill="#F4B77D"/>
<path d="M50.6718 64.3693C53.035 61.2293 54.9843 59.125 62.3328 50.9561C62.4801 50.7373 62.6859 50.5604 62.9286 50.4438C63.1713 50.3272 63.4421 50.2753 63.7128 50.2934C64.9203 50.4011 66.1795 49.962 67.4474 50.1857C67.3353 50.7905 66.8178 51.0638 66.4728 51.4532C63.6524 54.7672 61.0131 58.1888 58.3135 61.5524C58.1431 61.809 57.9051 62.0177 57.6235 62.1572C50.3354 64.5515 51.1634 64.3693 50.6718 64.3693Z" fill="#F4B77D"/>
<path d="M34.0083 49.4069C40.2011 42.9447 45.9798 38.0153 47.8083 36.2175C47.9378 36.0662 48.1103 35.9544 48.3048 35.8956C48.4992 35.8367 48.7073 35.8334 48.9037 35.8861C49.6454 36.1098 50.4562 36.3252 51.1979 36.4909C51.7154 36.6068 51.7154 36.8222 51.3704 37.1536C47.3512 40.741 43.6769 44.61 39.8819 48.4127C39.6455 48.688 39.3453 48.9063 39.0053 49.0501C38.6654 49.194 38.2951 49.2594 37.9241 49.2412C36.6476 49.1915 35.3624 49.5726 34.0083 49.4069Z" fill="#F4B77D"/>
<path d="M75.3738 49.4649C73.2607 52.2155 70.3972 55.6785 68.8274 57.7497C68.4146 58.2855 67.8296 58.6756 67.1628 58.8599C65.2049 59.4647 63.2557 60.2352 61.2978 60.9559C60.827 61.1569 60.3205 61.2694 59.8057 61.2873C63.6352 56.5981 66.2313 53.3008 68.9395 50.3597C69.6123 49.6969 68.3875 50.0283 75.3738 49.4649Z" fill="#F4B77D"/>
<path d="M9.12512 71.2622C9.41486 70.7222 9.80343 70.2367 10.2722 69.829C15.0419 65.5291 18.9749 60.6163 23.0286 55.6454C23.779 54.7092 24.6415 53.773 25.4436 52.8285C25.6161 52.6131 25.9007 52.3314 26.194 52.3314C27.3379 52.1916 28.4913 52.1362 29.644 52.1657C29.1265 52.7788 28.7297 53.2759 28.3244 53.715C24.0119 58.1142 21.4244 61.0968 13.3255 69.887C12.8833 70.3846 12.2724 70.7161 11.6005 70.8231C10.7953 71.0588 9.96486 71.2061 9.12512 71.2622Z" fill="#F4B77D"/>
<path d="M69.9745 57.816C71.4149 56.0513 75.8395 50.6413 76.6416 49.7051C76.7394 49.5261 76.902 49.3876 77.0987 49.3157C78.6368 49.0097 80.1919 48.7884 81.7562 48.653C81.8684 48.653 82.1012 48.595 82.153 48.7607C82.2047 48.9264 82.1012 49.15 81.9805 49.2578C81.118 50.4756 78.1251 54.3032 77.6162 55.1648C77.4233 55.5138 77.1536 55.8182 76.826 56.0571C76.4983 56.296 76.1205 56.4637 75.7187 56.5484C74.0541 56.9295 72.4499 57.3769 70.837 57.816C70.7041 57.8834 70.5561 57.9187 70.4057 57.9187C70.2554 57.9187 70.1074 57.8834 69.9745 57.816Z" fill="#F4B77D"/>
<path d="M49.8611 48.4127C53.8113 44.2703 55.0361 43.2679 57.3907 40.9067C57.7357 40.5753 57.9686 40.5256 58.3653 40.857C59.892 42.1743 60.9528 42.2074 60.4353 43.2264C59.9539 44.0424 59.3526 44.7874 58.65 45.4385C57.8996 46.209 57.1492 47.0375 56.3471 47.8079C56.1746 48.0316 56.0021 48.305 55.6571 48.247C53.8286 48.247 51.9915 48.5784 49.8611 48.4127Z" fill="#F4B77D"/>
<path d="M78.3667 55.6454C79.5138 53.9387 80.8938 52.6132 81.8167 51.0142C83.0242 48.9678 84.6371 48.363 86.9313 48.6364C87.9935 48.8139 89.076 48.8501 90.1484 48.7441C89.1221 49.962 88.1388 50.8982 87.3367 52.0581C86.9309 52.6167 86.4113 53.0905 85.8095 53.4508C85.2076 53.8111 84.5359 54.0503 83.835 54.1541C82.1617 54.5435 80.6178 55.0986 79.005 55.5377C78.7985 55.6023 78.5837 55.6386 78.3667 55.6454Z" fill="#F4B77D"/>
<path d="M88.0181 52.8451C89.1094 51.4455 90.2996 50.1196 91.5802 48.8767C92.0373 48.4293 92.6756 48.7607 93.4777 48.5453C92.8998 48.4873 92.5548 48.4873 92.1581 48.4293C93.1327 46.3664 94.1246 47.0789 97.5573 47.6588C98.0748 47.7665 98.4198 47.8825 97.8419 48.3796C97.3124 48.9218 96.8142 49.4915 96.3498 50.0863C95.8613 50.7297 95.1479 51.1826 94.3402 51.3621C92.4427 51.8012 90.6056 52.2983 88.7081 52.7954C88.6154 52.8766 88.4971 52.9257 88.372 52.9347C88.2469 52.9437 88.1223 52.9122 88.0181 52.8451Z" fill="#F4B77D"/>
<path d="M98.7648 110.615C99.0964 108.832 99.6948 107.105 100.542 105.487C100.627 105.322 100.746 105.176 100.892 105.056C101.037 104.937 101.206 104.846 101.388 104.79C101.571 104.733 101.763 104.712 101.954 104.728C102.144 104.744 102.33 104.796 102.499 104.882C102.841 105.036 103.109 105.31 103.247 105.647C103.385 105.985 103.383 106.36 103.241 106.696C102.784 107.972 102.327 109.24 101.749 110.507C101.404 111.394 100.369 111.56 99.679 112.057C99.4548 112.222 99.1615 112.057 99.0494 111.775C98.8387 111.423 98.7398 111.02 98.7648 110.615Z" fill="#F4B77D"/>
<path d="M105.656 96.6552C105.026 98.2542 104.621 100.185 102.724 101.237C102.379 101.46 102.094 101.46 101.921 101.013C101.678 100.545 101.542 100.032 101.522 99.5086C101.503 98.9854 101.601 98.4644 101.809 97.9808C102.154 97.2103 102.439 96.4315 102.844 95.719C102.972 95.4092 103.208 95.1515 103.512 94.9899C103.815 94.8283 104.168 94.7727 104.509 94.8325C105.371 95.0977 105.596 95.7687 105.656 96.6552Z" fill="#F4B77D"/>
<path d="M92.2873 46.5986C91.7698 47.2035 91.3127 47.7007 90.9073 48.1979C90.8096 48.292 90.6921 48.3651 90.5628 48.4122C90.4334 48.4594 90.295 48.4795 90.1569 48.4713H84.818C84.6455 48.4713 84.3609 48.5791 84.3005 48.3636C84.2402 48.1482 84.4127 47.9741 84.5334 47.8664C86.2584 45.6622 86.3447 45.3225 87.0605 45.4882C88.6475 45.8777 90.3725 46.2174 92.2873 46.5986Z" fill="#F4B77D"/>
<path d="M108.071 108.577C108.467 107.141 108.986 105.738 109.624 104.385C109.802 104.114 110.076 103.915 110.396 103.824C110.716 103.734 111.059 103.758 111.362 103.893C111.664 104.029 111.905 104.265 112.039 104.558C112.173 104.851 112.191 105.182 112.09 105.487C111.699 106.786 111.221 108.059 110.659 109.298C110.253 109.795 109.856 110.4 109.166 110.234C108.476 110.068 108.416 109.132 108.071 108.577Z" fill="#F4B77D"/>
<path d="M95.8322 105.595C95.3751 106.647 95.1422 107.972 94.2797 108.966C94.1006 109.217 93.8313 109.394 93.5237 109.465C93.2162 109.535 92.8924 109.493 92.6151 109.348C92.3016 109.206 92.0524 108.96 91.9143 108.655C91.7761 108.35 91.7585 108.007 91.8647 107.691C92.1321 106.661 92.5198 105.663 93.0205 104.716C93.1807 104.388 93.4653 104.13 93.8162 103.996C94.1672 103.862 94.5581 103.862 94.9094 103.996C95.5476 104.211 95.8322 104.716 95.8322 105.595Z" fill="#F4B77D"/>
<path d="M84.525 109.405C84.18 110.449 84.0075 111.609 83.145 112.438C82.7396 112.827 82.3342 112.885 82.0496 112.33C81.765 111.775 81.0146 111.336 81.1354 110.731C81.2809 109.616 81.7138 108.554 82.3946 107.641C82.5114 107.5 82.6661 107.393 82.8418 107.331C83.0176 107.268 83.2077 107.254 83.3917 107.288C83.5756 107.322 83.7463 107.404 83.8852 107.524C84.0242 107.645 84.1261 107.8 84.18 107.972C84.3891 108.424 84.5063 108.911 84.525 109.405Z" fill="#F4B77D"/>
<path d="M113.703 118.179C112.729 118.179 112.211 117.682 112.384 116.854C112.572 115.994 112.82 115.147 113.125 114.318C113.157 114.158 113.225 114.007 113.324 113.875C113.423 113.743 113.551 113.634 113.7 113.555C113.848 113.476 114.012 113.429 114.181 113.418C114.35 113.407 114.52 113.431 114.678 113.49C114.833 113.52 114.981 113.58 115.112 113.666C115.243 113.752 115.355 113.863 115.441 113.991C115.527 114.119 115.585 114.262 115.613 114.413C115.64 114.563 115.636 114.717 115.601 114.865C115.464 115.794 115.212 116.703 114.85 117.574C114.761 117.787 114.598 117.963 114.389 118.073C114.18 118.183 113.938 118.221 113.703 118.179Z" fill="#F4B77D"/>
<path d="M111.004 98.1465C111.073 97.0468 111.385 95.9738 111.918 94.9982C112.263 94.3355 112.608 94.3355 113.074 94.9402C113.186 95.0562 113.237 95.2219 113.358 95.3296C114.445 96.4315 114.16 97.5914 113.531 98.7513C113.418 99.069 113.182 99.3326 112.872 99.487C112.562 99.6414 112.201 99.6746 111.866 99.5797C111.055 99.414 110.935 98.8093 111.004 98.1465Z" fill="#F4B77D"/>
<path d="M120.137 108.908C120.064 109.534 119.849 110.136 119.508 110.673C119.332 110.929 119.069 111.119 118.764 111.209C118.459 111.3 118.13 111.286 117.835 111.17C117.565 111.103 117.331 110.94 117.182 110.714C117.033 110.488 116.98 110.215 117.032 109.952C117.22 108.87 117.55 107.815 118.016 106.812C118.085 106.633 118.21 106.479 118.373 106.371C118.537 106.263 118.731 106.206 118.93 106.208C119.335 106.257 119.387 106.696 119.508 106.978C119.86 107.57 120.075 108.229 120.137 108.908Z" fill="#F4B77D"/>
<path d="M106.286 116.025C106.113 116.639 105.941 117.467 105.717 118.238C105.686 118.337 105.627 118.425 105.546 118.493C105.465 118.56 105.366 118.604 105.259 118.619C104.794 118.677 104.337 118.843 103.819 118.951C102.896 119.174 102.672 118.951 102.896 118.072C103.124 117.136 103.412 116.215 103.759 115.313C103.806 115.155 103.886 115.009 103.993 114.881C104.1 114.754 104.233 114.649 104.383 114.572C104.533 114.494 104.698 114.447 104.868 114.432C105.038 114.417 105.209 114.435 105.372 114.484C105.694 114.589 105.965 114.804 106.134 115.088C106.303 115.372 106.357 115.706 106.286 116.025Z" fill="#F4B77D"/>
<path d="M81.2387 48.3638C80.7816 48.2478 80.1434 48.5792 79.9709 48.1981C79.7984 47.8169 80.3762 47.4771 80.6091 47.096C80.9568 46.5565 81.34 46.0389 81.7562 45.5464C82.0409 45.2149 82.153 44.552 82.7309 44.552C83.4884 44.6465 84.2378 44.7933 84.9734 44.9912C85.3184 45.1072 85.0855 45.3226 84.9734 45.4387C84.2834 46.317 83.6537 47.1457 82.9637 48.0323C82.4462 48.5792 81.7562 48.1981 81.2387 48.3638Z" fill="#F4B77D"/>
<path d="M78.0734 97.7076C77.7138 98.855 77.1945 99.9504 76.5295 100.964C76.012 101.569 75.7792 101.461 75.2617 100.798C74.9262 100.453 74.7169 100.013 74.6656 99.5433C74.6142 99.0737 74.7236 98.6009 74.977 98.1965C75.1626 97.7433 75.4997 97.3622 75.9353 97.1132C76.3709 96.8642 76.8803 96.7614 77.3834 96.8209C77.9009 96.8209 78.1338 97.0447 78.0734 97.7076Z" fill="#F4B77D"/>
<path d="M83.0759 98.4779C84.7492 101.088 85.4478 101.237 84.3955 102.67C84.2372 102.972 83.9679 103.207 83.6397 103.329C83.3116 103.452 82.9478 103.453 82.6188 103.333C82.2841 103.23 82.0054 103.004 81.8437 102.704C81.6821 102.405 81.6506 102.056 81.7563 101.734C81.9525 100.571 82.4022 99.4618 83.0759 98.4779Z" fill="#F4B77D"/>
<path d="M97.2122 50.6253C99.2649 48.2885 99.1183 48.1393 99.7997 48.1393C101.464 48.3631 103.069 48.6365 104.742 48.8603C104.735 48.973 104.753 49.0858 104.794 49.1917C102.327 49.7386 99.8514 50.2358 97.3847 50.791L97.2122 50.6253Z" fill="#F4B77D"/>
<path d="M89.9154 112.604C90.2514 112.6 90.5797 112.7 90.8517 112.889C91.1236 113.079 91.3246 113.348 91.4248 113.656C91.4635 113.735 91.4853 113.821 91.4888 113.908C91.4924 113.996 91.4776 114.083 91.4455 114.165C91.4133 114.247 91.3644 114.322 91.3016 114.385C91.2387 114.449 91.1633 114.499 91.0798 114.534C90.1052 115.031 89.1823 115.529 88.2077 116.026C87.9231 116.192 87.6298 116.192 87.7506 115.81C87.9135 114.94 88.2223 114.1 88.6648 113.324C88.9799 112.95 89.423 112.694 89.9154 112.604Z" fill="#F4B77D"/>
<path d="M100.49 90.5824C100.294 91.8486 99.8012 93.0556 99.0493 94.1124C98.8888 94.3398 98.6601 94.5147 98.3935 94.6139C98.1269 94.7131 97.8352 94.7318 97.5572 94.6676C97.3683 94.6563 97.1868 94.5934 97.034 94.4862C96.8811 94.379 96.7634 94.2321 96.6947 94.0627C96.5222 93.6235 96.9276 93.4578 97.1518 93.2921C98.1264 92.4054 99.1873 91.5768 100.49 90.5824Z" fill="#F4B77D"/>
<path d="M98.2473 117.351C98.1971 117.573 98.097 117.783 97.954 117.964C97.51 118.621 97.1454 119.324 96.8673 120.061C96.7551 120.392 96.4619 120.724 96.0651 120.558C95.6684 120.392 95.8926 120.061 95.9444 119.779C96.1169 118.901 96.2894 118.072 96.4619 117.185C96.4683 117.052 96.5042 116.921 96.5674 116.803C96.6305 116.684 96.7194 116.579 96.828 116.496C96.9367 116.413 97.0625 116.353 97.1972 116.32C97.3319 116.288 97.4723 116.283 97.609 116.307C98.0748 116.415 98.1869 116.854 98.2473 117.351Z" fill="#F4B77D"/>
<path d="M94.1072 78.4447C93.6514 78.4148 93.2143 78.2595 92.8479 77.9975C92.7064 77.8752 92.6038 77.717 92.5519 77.5411C92.5 77.3653 92.501 77.1789 92.5547 77.0035C92.6151 76.6722 92.9601 76.5645 93.2447 76.5065C93.7263 76.4087 94.2272 76.449 94.6851 76.6225C95.0818 76.7881 95.5476 76.9538 95.4872 77.4508C95.4872 78.2791 94.4091 78.3454 94.1072 78.4447Z" fill="#F4B77D"/>
<path d="M107.554 91.6841C107.554 91.3528 107.554 90.9718 107.786 90.8061C108.019 90.6405 108.244 91.0215 108.476 91.1374C108.696 91.2057 108.907 91.2974 109.106 91.4108C109.451 91.5764 110.02 91.6344 109.684 92.1811C109.567 92.438 109.355 92.6435 109.088 92.757C108.821 92.8705 108.52 92.8837 108.244 92.794C108.011 92.717 107.814 92.5633 107.687 92.3602C107.561 92.157 107.514 91.9176 107.554 91.6841Z" fill="#F4B77D"/>
<path d="M68.422 32.1329C68.5427 31.6359 68.6549 31.2549 69.3449 31.2549C70.0349 31.2549 70.147 31.6939 70.147 32.1909C70.147 32.6878 69.8624 33.1848 69.3449 33.1268C68.8274 33.0689 68.4824 32.6878 68.422 32.1329Z" fill="#F4B77D"/>
<path d="M76.8746 29.5399C77.0927 29.5546 77.2969 29.6483 77.4458 29.8021C77.5947 29.9559 77.6772 30.1582 77.6767 30.3682C77.6849 30.477 77.6706 30.5864 77.6347 30.6899C77.5988 30.7934 77.542 30.8891 77.4674 30.9714C77.3929 31.0538 77.3021 31.1212 77.2004 31.1698C77.0987 31.2184 76.9879 31.2471 76.8746 31.2545C76.3571 31.2545 76.1846 30.8652 76.1846 30.4262C76.1846 29.9872 76.3571 29.5979 76.8746 29.5399Z" fill="#F4B77D"/>
<path d="M9.92725 133.523C16.1372 132.636 117.835 118.287 123.527 117.409C123.741 117.393 123.955 117.424 124.154 117.5C124.353 117.576 124.531 117.695 124.674 117.848C128.064 120.226 131.341 122.819 134.791 125.138C138.759 127.823 150.782 134.848 160.244 141.633C160.477 141.799 160.822 141.965 160.701 142.247C160.58 142.528 160.183 142.412 159.899 142.354C155.931 142.023 151.972 142.131 148.065 142.023C143.813 141.857 139.501 141.857 135.249 141.691C133.356 141.58 131.457 141.58 129.565 141.691C129.41 141.686 129.255 141.71 129.11 141.763C128.965 141.816 128.832 141.896 128.719 141.998C128.607 142.101 128.517 142.224 128.455 142.361C128.392 142.497 128.359 142.644 128.357 142.793C127.983 145.909 127.81 149.044 127.84 152.18C127.84 153.34 127.779 153.39 126.572 153.174C121.397 152.346 116.222 151.517 111.047 150.631C98.851 148.584 93.7967 146.869 73.7609 143.738C58.5032 141.319 55.3896 139.595 22.1057 135.122C18.2504 134.625 14.464 133.962 10.6086 133.796C10.4014 133.665 10.1702 133.572 9.92725 133.523Z" fill="#FADF8F"/>
<path d="M6.19263 131.924C7.33655 130.655 8.72096 129.606 10.2723 128.833C18.8973 123.647 27.7465 118.892 36.5871 114.095C53.6733 104.865 62.6864 98.4116 67.7924 96.1001C68.6549 95.719 69.5174 95.3876 70.3799 94.9982C71.0095 94.7248 71.4149 94.9982 71.6995 95.5533C78.2028 108.809 80.2469 113.142 83.533 116.58C84.1264 117.195 84.8927 117.632 85.7391 117.838C86.5855 118.044 87.4759 118.01 88.3026 117.74C89.7222 117.31 91.0898 116.735 92.3823 116.025C93.0205 115.694 93.6501 115.42 94.3919 115.031C94.2902 116.417 93.9613 117.778 93.4173 119.066C93.3569 119.281 93.0723 119.281 92.848 119.339C87.328 120.109 11.4798 131.203 7.22763 131.924C6.88329 131.895 6.53696 131.895 6.19263 131.924Z" fill="#FADF8F"/>
<path d="M105.423 24.7927C104.336 24.7927 103.301 24.569 102.896 23.4672C102.712 22.996 102.698 22.4796 102.854 21.9994C103.01 21.5193 103.328 21.1029 103.759 20.816C106.458 18.6123 109.391 17.179 113.125 17.8418C113.505 17.9063 113.894 17.895 114.269 17.8085C114.644 17.722 114.996 17.5622 115.304 17.3391C115.611 17.1159 115.868 16.8342 116.057 16.5116C116.246 16.189 116.364 15.8324 116.403 15.464C116.463 15.1906 116.515 14.9172 116.575 14.6355C116.652 14.0086 116.869 13.4051 117.212 12.8665C117.554 12.328 118.015 11.8672 118.561 11.516C119.107 11.1648 119.725 10.9314 120.374 10.8321C121.023 10.7327 121.687 10.7697 122.32 10.9405C124.44 11.4505 126.512 12.1323 128.512 12.9786C131.669 14.1964 132.014 14.1385 134.489 11.827C135.259 11.0901 136.129 10.4573 137.077 9.94633C138.24 9.37574 139.575 9.21828 140.847 9.50176C142.119 9.78525 143.246 10.4914 144.029 11.4956C144.861 12.4375 145.627 13.4311 146.323 14.4698C146.903 15.3408 147.679 16.0757 148.594 16.6206C149.509 17.1654 150.54 17.5062 151.61 17.6181C152.36 17.7258 153.102 17.9495 153.853 18.1152C154.401 18.2566 154.904 18.5278 155.316 18.9041C155.727 19.2804 156.033 19.7497 156.207 20.2692C156.837 21.7605 155.923 23.1358 154.137 23.5251C150.316 24.3536 146.823 24.2045 137.362 24.627C132.687 24.8507 105.337 24.7927 105.423 24.7927Z" fill="#FADF8F"/>
<path d="M23.9515 26.7811C22.2655 26.6333 20.6355 26.1236 19.1819 25.2898C15.9933 23.5504 13.0289 21.4565 10.3499 19.0513C8.79739 17.6181 8.79739 16.7896 10.2895 15.3563C12.4803 13.31 14.8866 11.5453 17.2413 9.67294C17.8278 9.22556 19.9236 9.44096 21.4934 11.6033C24.5725 15.6297 29.1351 15.9943 32.2401 16.6239C33.1026 16.7896 33.9651 17.0133 34.2498 17.9495C34.5344 18.8857 33.9048 19.5484 33.2751 20.1035C31.783 21.5368 30.2305 22.9204 28.7384 24.2956C28.0186 24.9599 27.2296 25.5513 26.3838 26.0603C25.6642 26.5247 24.8183 26.7753 23.9515 26.7811Z" fill="#FADF8F"/>
<path d="M141.967 97.8151C141.126 97.8045 140.306 97.5536 139.613 97.0943C136.912 95.5192 134.423 93.6298 132.204 91.4689C130.859 90.1263 129.439 88.8541 127.952 87.6579C127.262 87.0531 127.029 86.2826 127.546 85.6695C129.271 83.6149 130.237 81.32 132.376 79.2654C132.708 78.9085 133.155 78.6706 133.646 78.5908C134.137 78.511 134.641 78.5941 135.076 78.8263C136.808 79.5938 138.414 80.5984 139.846 81.8088C141.735 83.4658 146.021 85.9927 148.29 87.6082C149.618 88.4947 149.73 89.1574 148.867 90.483C146.815 93.4821 145.918 97.7488 141.967 97.8151Z" fill="#FADF8F"/>
<path d="M88.1301 103.001C87.673 103.059 87.4401 102.728 87.2159 102.446C85.0855 99.6874 83.0155 96.8789 80.8334 94.1118C79.6086 92.5459 77.6507 91.3115 79.6259 90.309C80.7816 89.7042 81.9805 89.0912 83.1362 88.4284C83.2967 88.3166 83.4924 88.2613 83.6903 88.2719C83.8883 88.2825 84.0764 88.3582 84.223 88.4864C87.673 90.5824 91.1747 92.6785 94.6247 94.7248C95.0301 94.9402 95.3751 95.1639 95.1422 95.7687C94.6247 97.26 94.1072 98.7512 93.6501 100.243C93.5588 100.756 93.2968 101.227 92.9035 101.585C92.5101 101.944 92.0065 102.17 91.468 102.231C90.3343 102.395 89.2175 102.652 88.1301 103.001Z" fill="#FADF8F"/>
<path d="M73.6394 95.8686C73.0544 95.1098 72.6616 94.2304 72.4923 93.3003C71.9834 91.577 70.0687 90.4669 69.3356 88.4454C69.1631 87.9483 68.9906 87.3932 69.4477 86.9541C69.9048 86.515 70.4827 86.8464 70.9398 87.1198C71.3969 87.3932 71.9144 87.7826 72.4319 88.114C72.2077 86.8961 71.9748 85.6865 71.6902 84.5266C71.5347 83.8144 71.5524 83.0772 71.7419 82.3726C71.9144 81.6518 72.3802 81.5441 72.8977 82.0412C73.4913 82.6088 73.9606 83.2849 74.2777 84.0296C74.4334 84.4052 74.6455 84.7569 74.9073 85.0734C74.7481 83.9115 74.7684 82.7334 74.9677 81.5772C75.0193 81.1767 75.1327 80.7858 75.3041 80.4174C75.3434 80.2517 75.438 80.103 75.5734 79.9938C75.7089 79.8846 75.8778 79.821 76.0545 79.8126C76.5116 79.7546 76.7444 80.028 76.9169 80.3594C77.4732 81.6479 77.8614 82.9975 78.0727 84.3775C78.1209 83.7701 78.2514 83.1713 78.4608 82.5963C78.6333 82.1489 78.7454 81.6021 79.3233 81.5441C79.9012 81.4861 80.1858 82.0412 80.3583 82.4803C80.8689 84.1466 80.9868 85.9013 80.7033 87.6169C81.1001 87.5589 81.1604 87.2855 81.3329 87.1198C81.7383 86.7304 82.0833 86.0179 82.7733 86.3493C83.4633 86.6807 83.0579 87.3932 82.9458 87.9483C82.5563 89.1009 82.0807 90.225 81.5227 91.3119C81.2381 91.867 81.0052 92.4138 80.5998 93.1346C81.1157 92.8854 81.6167 92.6088 82.1006 92.3061C84.1062 91.245 86.0418 90.0664 87.8966 88.7767C87.9809 88.6957 88.0817 88.6324 88.1928 88.5907C88.3038 88.549 88.4227 88.5299 88.5419 88.5346C88.661 88.5392 88.7778 88.5676 88.885 88.6178C88.9922 88.6681 89.0873 88.7391 89.1644 88.8265C89.3973 89.1081 89.7941 89.2158 90.1994 89.4892C90.0492 88.7095 89.8564 87.938 89.6216 87.1778C88.9919 85.0734 89.5698 83.0934 90.0873 81.105C90.1391 80.8233 90.2598 80.6576 89.8544 80.4422C88.5348 79.7794 88.2416 79.2244 88.4141 78.1805C88.5403 77.7315 88.816 77.3346 89.1991 77.0504C89.5823 76.7661 90.0517 76.6102 90.5358 76.6064C91.1654 76.5567 91.3983 76.2253 91.7433 75.7779C92.1328 75.3102 92.386 74.7516 92.4769 74.1592C92.5678 73.5667 92.4933 72.9616 92.2608 72.406C92.0376 71.6499 92.0168 70.852 92.2004 70.0862C92.3022 69.6248 92.5017 69.1885 92.7866 68.8043C93.0714 68.4202 93.4355 68.0964 93.8562 67.8532C94.2768 67.61 94.7451 67.4525 95.2318 67.3906C95.7185 67.3286 96.2133 67.3635 96.6854 67.4931C97.9893 67.7705 99.3405 67.7705 100.644 67.4931C104.094 66.9463 107.484 66.7806 110.356 69.2577C113.746 72.1906 115.298 77.4845 113.401 81.0139C112.469 82.6323 111.151 84.0151 109.554 85.0486C109.149 85.322 108.864 85.5954 108.924 86.0925C108.914 86.3175 108.874 86.5403 108.804 86.7553C108.346 89.075 108.346 89.075 109.494 91.0634C109.994 92.0161 111.658 90.732 113.918 93.9879C115.643 96.4154 117.084 99.0085 118.576 101.602C120.876 105.348 122.69 109.352 123.975 113.523C124.227 114.408 124.248 115.339 124.035 116.233C123.975 116.672 124.096 116.779 124.432 116.614C125.415 116.233 126.157 116.73 126.907 117.227C129.719 119.157 132.764 120.814 135.645 122.637C145.296 128.925 165.349 141.51 165.573 141.692C165.798 141.874 166.212 142.131 165.979 142.52C165.746 142.91 165.461 142.852 165.116 142.852C162.356 142.901 159.605 142.794 156.845 142.628C151.67 142.388 145.537 142.669 130.927 142.355C130.237 142.355 130.064 142.462 130.064 143.183C130.125 146.215 130.064 149.306 130.012 152.346C130.012 153.887 129.84 154.003 128.227 153.721C103.715 149.794 96.8234 149.264 70.5948 144.285C57.8816 141.891 38.3804 139.364 29.0568 137.607C21.1563 136.108 15.3172 136.729 6.18332 135.561C5.60544 135.561 4.13057 134.873 5.61407 134.517C6.26592 134.296 6.86862 133.958 7.39082 133.523C12.5054 130.433 17.8529 127.782 23.0193 124.799C23.1056 124.708 73.5532 95.8934 73.6394 95.8686ZM162.649 141.592C151.894 134.65 139.767 127.094 127.02 118.635C126.695 118.404 126.321 118.244 125.924 118.168C125.527 118.092 125.118 118.102 124.725 118.196C111.788 120.433 95.0381 122.736 83.1787 124.095C69.7668 125.561 50.0414 128.56 30.2643 131.328C24.7443 132.098 19.3451 133.208 13.8251 134.086C12.0975 134.349 10.3891 134.717 8.71044 135.188C10.5993 135.346 77.8312 139.43 83.2994 139.662C92.4333 140.101 122.112 140.988 127.71 141.261C139.379 141.65 150.98 141.095 162.649 141.592ZM102.852 96.0922C102.88 96.1517 102.892 96.217 102.887 96.2821C102.881 96.3471 102.858 96.4096 102.82 96.4637C102.782 96.5177 102.73 96.5615 102.669 96.5907C102.608 96.62 102.541 96.6338 102.473 96.6308C102.042 96.6308 101.688 97.2024 101.162 97.8238C98.5053 101.312 96.8493 104.452 93.8133 104.667C91.6657 104.965 91.3983 104.808 91.3983 106.109C91.4829 106.993 91.4247 107.884 91.2258 108.751C91.1137 109.199 91.0533 109.696 90.4237 109.638C89.7941 109.58 89.7854 109.033 89.7854 108.536C89.8458 107.708 89.9062 106.821 89.9579 105.993C89.9579 105.719 89.9579 105.388 89.6129 105.33C88.0604 104.998 87.2583 103.897 86.5683 102.687C84.839 99.6943 82.714 96.9291 80.2462 94.4601C79.7891 94.021 79.5044 93.963 78.9869 94.3524C76.2183 96.5065 75.0626 96.2082 75.7698 97.219C76.1774 97.7918 76.5241 98.4024 76.8048 99.0416C79.1594 103.673 81.8591 108.205 84.3258 112.786C84.9723 114.116 85.8275 115.343 86.8616 116.423C87.2263 116.85 87.7257 117.151 88.2843 117.281C88.8429 117.411 89.4303 117.363 89.9579 117.144C90.7687 116.813 91.5708 116.481 92.3126 116.15C96.5647 114.112 100.877 112.123 105.302 110.408C105.368 110.394 105.438 110.399 105.501 110.425C105.564 110.45 105.617 110.493 105.653 110.549C105.689 110.604 105.707 110.67 105.702 110.735C105.698 110.8 105.673 110.863 105.63 110.914C105.096 111.528 104.439 112.032 103.698 112.397C102.257 113.118 100.817 113.83 99.3851 114.493C99.1004 114.659 98.7554 114.774 98.8072 115.214C99.0181 117.112 98.7212 119.031 97.9447 120.789C98.0072 120.843 98.0823 120.88 98.1636 120.899C98.2448 120.918 98.3296 120.917 98.4104 120.897C102.887 120.234 118.86 117.865 122.371 117.31C122.595 117.252 123.061 117.368 123 116.978C122.828 116.092 123.112 115.156 122.888 114.277C122.469 112.622 121.93 110.997 121.275 109.414C119.183 104.285 116.465 99.4126 113.176 94.8992C112.882 94.4094 112.474 93.9906 111.986 93.6748C111.497 93.3589 110.94 93.1543 110.356 93.0766C110.09 93.0834 109.826 93.0382 109.579 92.9436C109.332 92.849 109.107 92.707 108.919 92.5264C108.731 92.3458 108.583 92.1302 108.485 91.8929C108.386 91.6556 108.339 91.4016 108.346 91.1462C108.346 91.0385 108.286 90.9308 108.286 90.8148C108.281 90.7133 108.25 90.6145 108.196 90.5269C108.143 90.4393 108.068 90.3654 107.978 90.3117C107.888 90.258 107.786 90.2259 107.68 90.2183C107.575 90.2107 107.469 90.2278 107.372 90.268C106.252 90.4916 105.169 90.8623 104.155 91.3699C102.024 92.3641 100.765 94.2364 99.2126 95.7857C98.1776 96.8296 98.3501 97.7741 98.7554 99.0416C99.4548 98.0483 100.255 97.1242 101.145 96.2828C101.748 95.8437 102.525 95.4377 102.852 96.0922ZM10.5648 133.15C12.1691 132.711 13.7819 132.322 15.4466 131.883C22.4501 129.952 29.4104 128.014 36.4743 126.365C52.1977 122.72 67.5502 118.03 83.1269 113.888C83.8687 113.664 83.8083 113.449 83.4719 112.894C80.8241 108.37 77.9519 103.955 75.8216 99.1493C75.5369 98.5445 75.2523 97.8818 74.9591 97.277C74.7866 96.8876 74.6141 96.6142 74.2087 97.1113C72.6217 99.1411 43.5037 114.774 43.4088 114.824C43.3139 114.874 10.5562 133.067 10.5562 133.15H10.5648ZM35.1547 137.79C56.0099 141.054 53.8968 140.689 56.8121 141.104C73.6998 143.531 78.7886 145.296 99.7387 148.394L128.098 152.636C128.494 152.686 128.727 152.686 128.727 152.139C128.669 149.136 128.784 146.132 129.072 143.142C129.133 142.645 128.96 142.479 128.443 142.421C125.933 142.421 78.4867 140.482 73.1047 140.159C66.2909 139.77 37.2678 137.914 35.1461 137.79H35.1547ZM19.7504 131.767C21.2426 131.767 30.3161 130.11 64.4021 125.139C74.7521 123.614 87.4481 122.347 96.0558 121.162C96.3491 121.112 96.7458 121.22 96.8666 120.781C97.3873 119.185 97.7144 117.536 97.8412 115.868C97.8412 115.313 97.6687 115.371 97.2633 115.537C96.4008 115.918 95.4866 116.249 94.6241 116.697C93.2938 117.403 91.9099 118.013 90.4841 118.519C87.7844 119.29 86.4993 117.484 84.9727 115.205C84.8002 114.932 84.6794 114.766 84.2223 114.874C77.7881 116.697 71.3538 118.354 64.9196 120.226C52.3788 123.83 39.6828 126.804 27.0989 130.002C24.6105 130.441 22.1532 131.031 19.7418 131.767H19.7504ZM91.4069 81.1547C92.8196 81.0178 94.2395 80.9625 95.6591 80.989C96.4008 80.989 96.8062 81.2127 96.9183 81.9335C97.0304 82.6543 96.8666 83.3668 96.9183 84.0296C96.9183 84.5266 96.7458 84.6923 96.4008 84.742C94.6955 85.2689 92.9471 85.6569 91.1741 85.9019C90.5444 86.0179 90.3719 86.2333 90.5444 86.7304C90.9671 88.3874 91.0361 89.4313 91.5794 89.6052C92.2867 89.7709 92.3471 88.4702 93.0716 88.6111C93.4166 88.6608 93.4166 88.9424 93.4769 89.1579C93.5771 89.6411 93.7515 90.1074 93.9944 90.5414C94.2187 90.8728 94.3912 91.3119 94.7966 91.3119C95.202 91.3119 95.3141 90.8148 95.547 90.5414C95.7798 90.268 95.8316 89.4395 96.5216 89.5472C97.2116 89.6549 96.8666 90.3177 97.0391 90.7651C97.0908 90.9308 97.0391 91.0965 97.2633 91.2042C97.4876 91.3119 97.5566 91.0965 97.6687 90.9805C98.3648 90.2075 98.9268 89.3319 99.3333 88.3874C99.7991 87.2855 99.9716 86.0676 100.48 84.9077C101.748 82.0992 104.215 80.2185 106.345 78.0645C106.647 77.8264 107.015 77.679 107.403 77.6407C107.791 77.6024 108.182 77.6749 108.528 77.8491C109.218 78.1805 109.105 78.8433 109.045 79.448C108.994 80.0876 108.778 80.7049 108.416 81.2443C108.055 81.7837 107.56 82.2284 106.975 82.5383C107.502 82.9866 108 83.4652 108.467 83.9716C108.517 84.1337 108.617 84.2773 108.754 84.3832C108.892 84.489 109.059 84.552 109.235 84.5637C109.41 84.5755 109.585 84.5353 109.736 84.4487C109.888 84.3621 110.007 84.2332 110.08 84.0793C111.115 83.1671 111.971 82.0839 112.607 80.8813C114.332 77.0206 113.409 73.541 110.598 70.5087C109.649 69.2977 108.248 68.4869 106.69 68.247C104.901 67.9851 103.073 68.1154 101.343 68.6281C99.8232 69.1405 98.1554 69.0632 96.6941 68.4127C96.3601 68.2424 95.9873 68.1547 95.6093 68.1575C95.2312 68.1602 94.8598 68.2533 94.5286 68.4285C94.1974 68.6036 93.9168 68.8551 93.7121 69.1604C93.5074 69.4658 93.3851 69.8152 93.3562 70.1773C93.2668 71.287 93.3453 72.4032 93.5891 73.4913C94.2187 73.1599 94.6241 72.6628 95.2537 72.6628C94.8547 72.0382 94.5825 71.3467 94.4516 70.6247C94.4516 69.7962 95.6677 70.1276 95.3141 70.7324C95.2537 70.8484 95.3141 70.8981 95.3141 71.0141C95.7712 72.4474 98.1862 74.27 99.8508 74.3777C99.615 74.0341 99.4238 73.6641 99.2816 73.2759C99.1608 72.9942 98.8762 72.7208 99.1608 72.4474C99.4454 72.174 99.7387 72.4971 99.9716 72.6628C101.414 73.8035 102.971 74.8027 104.62 75.6453C105.423 76.0347 105.371 77.9071 104.62 78.2965C103.105 79.1413 101.507 79.8433 99.8508 80.3925C99.1991 80.6627 98.4886 80.7765 97.7808 80.7239C95.8833 80.5002 93.9944 80.6659 92.0969 80.6162C91.6829 80.6576 91.3983 80.6576 91.3983 81.1547H91.4069ZM97.7291 95.9514C97.7291 95.7277 97.4358 95.6697 97.2116 95.562C94.5119 93.7394 91.8123 91.9747 89.2766 89.9863C88.8798 89.6549 88.5866 89.7709 88.2416 89.9863C86.175 91.367 83.9842 92.5675 81.6952 93.5737C81.1777 93.7974 81.0052 93.963 81.5227 94.4021C83.3981 95.9666 84.9743 97.8339 86.1802 99.9198C86.9219 101.196 87.7327 102.356 88.5348 103.565C88.9919 104.336 89.9148 104.501 90.6048 104.998C90.7773 105.164 91.062 104.501 91.4673 104.394C93.6149 103.88 94.9691 103.93 96.9183 101.245C97.3851 100.684 97.6132 99.9735 97.5566 99.257C97.5997 98.2132 97.2029 97.1113 97.7204 95.9514H97.7291ZM72.5009 82.6957V83.7976C72.7328 85.5427 73.1372 87.2627 73.7084 88.9342C73.7688 89.2076 73.8809 89.539 73.5963 89.7626C73.3117 89.9863 72.9581 89.8124 72.6734 89.5969C71.9204 88.8055 71.0267 88.149 70.0342 87.6583C70.5948 90.1437 73.0271 90.7237 73.8809 93.7311C74.1276 94.5363 74.5251 95.2915 75.0539 95.9597C75.9955 95.1683 77.0498 94.51 78.1848 94.0045C78.8636 93.7014 79.4631 93.256 79.9392 92.7012C80.4153 92.1464 80.756 91.4961 80.9362 90.7982C81.4233 89.7371 81.8466 88.65 82.2041 87.5423C80.9793 88.7188 80.8154 89.1993 80.1944 88.9756C80.077 88.9109 79.9849 88.8111 79.9319 88.6915C79.879 88.5719 79.8682 88.4389 79.9012 88.3128C79.9012 86.9955 80.4618 84.6841 79.4441 82.414C78.7627 84.2035 79.2371 83.2425 78.8144 87.1032C78.8144 87.3766 78.7541 87.766 78.2969 87.766C77.6156 87.766 77.7881 87.2358 77.2619 84.5598C76.9773 83.2425 76.9169 81.9169 76.1148 80.6411C75.2523 82.0743 76.0113 85.2723 76.2269 87.4346C76.2873 87.708 76.3391 88.0974 75.9423 88.2051C75.5456 88.3128 75.3041 87.9897 75.1919 87.65C74.6744 86.6641 74.2777 85.6699 73.7602 84.6758C73.5223 83.9242 73.0854 83.2448 72.4923 82.704L72.5009 82.6957ZM99.0487 94.1785C99.379 94.0123 99.6562 93.7632 99.8508 93.4577C101.278 91.6967 103.285 90.4526 105.543 89.9283C106.113 89.7626 106.69 89.597 107.268 89.481C107.387 89.4732 107.499 89.4245 107.583 89.3437C107.667 89.263 107.717 89.1558 107.725 89.0419C107.801 87.941 107.992 86.8502 108.295 85.7859C108.343 85.6634 108.353 85.5302 108.323 85.4023C108.294 85.2744 108.228 85.1574 108.131 85.0652C107.148 84.187 106.518 82.8034 105.078 82.3643C104.569 82.1986 104.733 81.3038 105.483 81.5938C106.345 82.0909 106.975 81.6435 107.493 81.0387C107.792 80.6616 108.009 80.2305 108.131 79.7712C108.243 79.2741 108.528 78.777 107.95 78.4456C107.372 78.1142 106.682 78.5616 106.225 79.0007C104.56 81.1299 101.912 83.607 101.679 84.2367C100.765 86.283 100.248 88.5448 99.2729 90.5331C99.0659 90.7402 99.4972 91.0965 99.0401 94.1867L99.0487 94.1785ZM100.299 74.1209C100.593 75.2808 100.36 75.5542 99.2126 75.2808C97.9448 75.0266 96.7958 74.3876 95.9351 73.4581C95.5383 73.0107 95.2451 73.1267 94.8483 73.4001C93.9723 74.0796 93.2799 74.9521 92.8301 75.9436C92.3729 76.9875 91.8554 77.8159 90.5358 77.7082C90.2684 77.7082 89.3887 78.1225 89.3887 78.8101C89.3854 79.0234 89.4567 79.2316 89.5912 79.4013C89.7257 79.5711 89.9156 79.6925 90.1304 79.7463C90.8714 80.0022 91.6471 80.1529 92.4333 80.1937C93.9216 80.0625 95.4183 80.0432 96.9097 80.1357C99.4196 80.26 100.118 79.448 103.87 78.0396C104.267 77.8739 104.267 77.5923 104.267 77.3189C104.267 77.0455 104.327 76.7141 103.922 76.5484C102.642 75.8443 101.429 75.032 100.299 74.1209ZM93.5201 81.6767C92.8904 81.627 92.2004 81.6767 91.5708 81.627C91.2258 81.569 91.1137 81.6767 91.0533 81.9584C90.5444 84.8746 90.0442 85.7031 91.0533 85.38C96.7027 83.897 96.4181 84.5515 96.3404 82.3974C96.2801 81.9004 96.1679 81.569 95.5383 81.627C94.8674 81.6884 94.1924 81.6967 93.5201 81.6518V81.6767ZM98.0654 94.9324C98.1349 94.1428 98.1146 93.3483 98.0051 92.5629C98.0051 92.3392 97.9447 92.1735 97.6601 92.2812C97.5016 92.3343 97.3337 92.3564 97.1662 92.3462C96.9987 92.3361 96.835 92.2939 96.6848 92.2221C96.5345 92.1503 96.4007 92.0504 96.2912 91.9283C96.1817 91.8061 96.0988 91.6641 96.0472 91.5107C95.7626 91.7924 95.5901 92.1155 95.2451 92.2812C94.1497 92.9523 92.2177 90.9971 98.0654 94.8992V94.9324ZM92.6058 89.9615C92.2557 90.2476 91.843 90.4543 91.3983 90.5663C92.2004 91.0634 92.8301 91.5025 93.5201 91.9498C93.1344 91.3154 92.8275 90.6397 92.6058 89.9366V89.9615Z" fill="#3C270B"/>
<path d="M95.823 28.1153L97.0477 27.7259C97.1887 27.6512 97.3526 27.6269 97.5105 27.6572C97.6684 27.6875 97.81 27.7706 97.9102 27.8916C98.1345 28.165 97.962 28.4384 97.8498 28.6621C97.5382 29.0906 97.1921 29.495 96.8148 29.8717C96.0127 30.6505 95.2106 31.479 94.3481 32.1914C92.9699 33.2923 91.7847 34.5986 90.8377 36.0605C89.2335 38.6536 87.1635 41.0313 85.4385 43.6162C85.0935 44.1713 84.9813 44.395 85.8438 44.6104C92.3298 46.2094 98.9452 47.4272 105.492 48.8108C106.725 49.051 107.898 49.4819 109.123 49.7055C110.908 50.0369 111.313 50.2689 109.166 51.0145C105.641 52.0903 102.056 52.9754 98.4277 53.6657C92.9681 54.9333 87.4481 55.8694 82.0402 57.0873C77.0377 58.1892 72.156 59.9042 67.2138 61.3374C60.2535 63.3506 53.5346 65.8361 46.5828 67.7996C44.3403 68.4624 42.0978 69.0672 39.8553 69.7879C39.5552 69.9405 39.2102 69.9907 38.8765 69.9305C38.5428 69.8703 38.2402 69.7032 38.0182 69.4565C37.3886 68.8518 36.6382 68.2967 35.9482 67.6919C35.7506 67.4822 35.4929 67.3333 35.2074 67.264C34.9219 67.1947 34.6215 67.2081 34.3439 67.3025C27.2714 69.1252 20.1472 70.9478 13.0833 72.7125C12.6092 72.8306 12.1282 72.9219 11.6429 72.9859C11.4899 73.0219 11.3288 73.0091 11.1841 72.9493C11.0393 72.8895 10.9188 72.786 10.8408 72.6545C10.3061 71.826 12.5658 70.0613 27.1593 54.7179C27.7889 54.0551 28.5911 53.558 28.8239 52.6218C28.8843 52.4064 29.2811 52.3484 29.5743 52.2904C31.4632 52.075 33.3607 51.7436 35.2582 51.5779C36.0086 51.5199 35.8878 51.2962 35.6636 50.7991C35.0857 49.6973 34.5682 48.5374 33.9989 47.4355C33.9364 47.342 33.894 47.2373 33.8745 47.1277C33.8549 47.0181 33.8585 46.9058 33.8851 46.7976C33.9116 46.6893 33.9606 46.5873 34.0291 46.4977C34.0975 46.408 34.1841 46.3325 34.2836 46.2756C38.4753 42.7463 42.7274 39.2087 46.9278 35.6214C47.178 35.3626 47.5036 35.1823 47.8621 35.1039C48.2206 35.0256 48.5953 35.0529 48.9375 35.1823C50.3174 35.6214 51.7492 35.903 53.1896 36.2841C53.2361 36.1826 53.261 36.0732 53.2626 35.9623C53.2643 35.8514 53.2428 35.7413 53.1994 35.6386C53.1559 35.5358 53.0915 35.4425 53.0098 35.3641C52.9281 35.2857 52.8309 35.2239 52.7238 35.1823C52.5479 35.1156 52.3898 35.0117 52.2614 34.8783C52.133 34.7449 52.0375 34.5855 51.9821 34.4118C51.7492 33.5253 51.0075 33.3099 50.2571 33.0282C49.8237 32.8767 49.4316 32.6332 49.11 32.3157C48.5321 31.7026 48.5925 31.3215 49.455 31.0979C49.6044 31.0513 49.7572 31.0153 49.9121 30.9901C49.5317 30.5748 49.1856 30.1316 48.8771 29.6646C48.5924 28.9769 48.8771 28.513 49.6274 28.8941L51.4646 29.7723C51.2835 28.9935 50.145 28.3473 50.6021 27.8419C50.9471 27.5105 51.2317 27.8419 51.5163 27.9496C52.4058 28.3643 53.2375 28.8848 53.9917 29.4989C54.2763 29.3912 54.1642 29.1675 54.2246 29.0018C54.2763 28.6704 54.2246 28.281 54.6817 28.1733C55.1388 28.0656 55.3113 28.4467 55.4235 28.7284C56.1134 30.1617 56.8638 31.5949 57.4935 33.0282C57.6142 33.2519 57.666 33.3596 57.8988 33.4673C60.4259 34.6852 62.841 36.1185 65.6009 36.7315C65.8634 36.8242 66.0997 36.9746 66.2909 37.1706C67.4381 38.4382 68.9906 37.9411 70.3706 38.0488C70.7673 38.0488 70.5948 37.7174 70.5948 37.5517C70.4051 35.8948 70.3102 35.6379 70.6552 35.5717C71.0002 35.5054 71.0606 35.7373 71.1123 35.9528C71.3202 36.5264 71.4732 37.1171 71.5695 37.7174C71.6298 38.1648 71.8627 38.2725 72.2594 38.2725C75.882 38.2725 75.6404 38.4051 75.7094 38.2725C76.1666 37.1126 77.4344 37.1126 78.3573 36.6155C82.3852 34.3538 79.7287 31.3464 80.1945 29.1095C80.3444 28.0638 80.2077 26.9986 79.7977 26.0193C79.6131 25.5858 79.3249 25.2001 78.9562 24.8935C78.5876 24.5869 78.149 24.3681 77.6759 24.2546C76.1684 23.7817 74.6023 23.5031 73.0185 23.4261C72.171 23.4112 71.3355 23.6205 70.6034 24.0309C69.573 24.4666 68.6535 25.1125 67.9088 25.9236C67.1642 26.7348 66.6121 27.6918 66.2909 28.7284C65.7957 30.0196 65.5219 31.3794 65.4802 32.7548C65.6009 34.4615 66.8602 36.1764 68.3523 36.4001C68.4731 36.0687 68.2402 35.7871 68.2402 35.5137C68.2402 35.2403 68.3006 34.8509 68.6973 34.8509C69.0941 34.8509 69.4477 35.29 69.6202 35.6214C69.7927 35.9528 70.2498 36.1764 69.7323 36.5658C69.5598 36.6735 69.6202 36.7812 69.6202 36.9469C69.6202 37.502 69.3356 37.502 68.8698 37.444C66.3427 37.0629 64.1002 34.6272 64.2727 32.1997C64.5659 28.1733 66.291 24.9754 70.1981 23.0864C71.9231 22.258 73.6998 22.4816 75.4766 22.755C75.9886 22.8086 76.4923 22.9198 76.9773 23.0864C78.1346 23.3769 79.1534 24.0392 79.8642 24.9632C80.5751 25.8872 80.9351 27.0171 80.8844 28.165C80.8527 29.7974 81.0265 31.4276 81.4019 33.0199C81.4857 33.5952 81.4245 34.1814 81.2233 34.7293C81.0222 35.2771 80.6871 35.7706 80.2462 36.1682C79.5466 36.8753 78.7343 37.4709 77.8398 37.9328C78.6404 38.0868 79.4651 38.0832 80.2641 37.9223C81.0632 37.7614 81.82 37.4465 82.4887 36.9966C84.7398 35.406 87.1376 32.324 89.6733 30.7002C89.7801 30.6311 89.8711 30.5418 89.9408 30.4378C90.0105 30.3339 90.0574 30.2173 90.0787 30.0954C90.2417 29.4776 90.4912 28.884 90.8204 28.3307C91.1137 27.8916 91.4587 27.4442 91.9676 28.107C92.2005 28.4384 92.3729 28.107 92.4851 27.9993C93.2027 27.3682 94.0443 26.8809 94.9604 26.5661C95.3055 26.4501 95.7022 26.2347 96.0472 26.5661C96.3922 26.8974 95.9523 27.9579 95.823 28.1153ZM12.9108 71.5029C13.1401 71.5686 13.3869 71.5479 13.6008 71.4449C26.1243 67.9653 38.7082 64.875 51.3352 61.9505C66.1875 58.5123 74.0535 57.427 104.81 50.8571C104.172 50.4926 50.3692 52.3981 50.2829 52.4064C43.6676 52.6798 37.0608 52.2407 30.5144 53.0112C30.1694 53.0609 29.8848 53.0609 29.652 53.3923C24.2527 60.0367 15.3948 68.8518 12.9108 71.5029ZM58.3042 34.9586C58.0112 35.7903 57.4716 36.5217 56.7517 37.0629C56.2342 37.5517 56.3463 37.7754 56.8034 38.2145C58.6768 39.9278 60.719 41.4621 62.9013 42.796C63.2982 43.0236 63.6108 43.3651 63.795 43.7723C63.9791 44.1796 64.0255 44.6321 63.9277 45.066C63.6514 46.7456 63.1317 48.3797 62.3838 49.9209C62.151 50.5257 62.151 50.7494 62.9531 50.7494C68.4731 50.5837 73.9844 50.1364 79.5044 50.0287C79.6742 50.0308 79.8409 49.9848 79.9836 49.8964C80.1263 49.808 80.2387 49.6811 80.3066 49.5316C83.2391 45.3394 86.2837 41.197 89.1558 36.8972C89.682 36.2179 89.3542 36.7067 88.7505 33.2519C88.6987 33.0862 88.8108 32.8625 88.5779 32.8128C88.3451 32.7631 88.2329 32.9785 88.1208 33.0862C87.0858 34.1301 86.1112 35.1823 85.0762 36.2344C84.2633 37.0958 83.2695 37.7818 82.1605 38.2474C81.0514 38.7129 79.8522 38.9474 78.642 38.9353C78.1245 38.9353 78.0123 39.101 78.0641 39.5401C78.2561 40.4954 78.1167 41.4849 77.6673 42.3569C77.5452 42.6691 77.3356 42.9427 77.0615 43.1474C76.7875 43.3521 76.4599 43.48 76.1148 43.5168C75.7502 43.5297 75.3901 43.436 75.0821 43.2482C74.7741 43.0603 74.5327 42.7871 74.3898 42.4646C74.2173 42.1332 74.0448 41.8598 73.8723 41.4704C73.3807 42.4232 73.1047 43.9559 71.6298 43.8482C70.8277 43.7902 70.4223 43.1854 70.1377 42.5226C69.8308 41.6539 69.6933 40.7383 69.7323 39.8218C69.7323 38.7696 69.7323 38.7696 68.5852 38.9933C68.6973 39.2087 69.2148 39.2667 68.9906 39.5981C68.7663 39.9295 68.4127 39.7058 68.1281 39.6561C67.8731 39.6021 67.636 39.4883 67.4381 39.3247C65.9138 37.9766 64.019 37.0766 61.9785 36.7315C60.6588 36.5658 59.5635 35.6214 58.3042 34.9586ZM36.4657 45.9525C39.6224 45.8945 42.5032 46.3916 45.3753 46.4496C49.8086 46.5407 53.5691 46.8887 61.6938 47.5515C61.9785 47.5515 62.2631 47.6675 62.3838 47.2781C62.7677 46.3975 63.0175 45.4683 63.1256 44.5193C63.1668 44.3297 63.1376 44.1323 63.0431 43.9613C62.9486 43.7902 62.7946 43.6564 62.6081 43.5831C60.1478 42.3795 57.8983 40.8141 55.941 38.9436C55.2254 38.0788 54.1967 37.5049 53.0602 37.3363C51.4304 37.051 49.8352 36.6068 48.2992 36.0107C48.075 35.903 47.7817 35.6794 47.4971 36.0687C45.7893 38.1317 43.5727 39.6643 36.4657 45.9525ZM59.7532 50.8654C59.9647 50.8958 60.1803 50.8855 60.3876 50.8351C60.5948 50.7847 60.7896 50.6953 60.9606 50.5719C61.1315 50.4486 61.2752 50.2938 61.3833 50.1166C61.4914 49.9394 61.5618 49.7434 61.5903 49.5399C61.7628 48.8274 61.7111 48.6617 60.9607 48.6037C56.8811 48.3303 52.8618 47.9989 48.7822 47.7172C46.0826 47.5515 43.3743 47.5515 40.6747 47.2781C39.035 47.0905 37.3834 47.0157 35.7326 47.0544C34.9908 47.0544 34.9304 47.2781 35.2754 47.8829C35.8533 48.8771 36.4226 49.8712 36.9401 50.8654C37.0356 51.0894 37.2063 51.2763 37.4251 51.3964C37.6439 51.5165 37.8982 51.5629 38.1476 51.5282C58.9338 50.9234 54.4575 50.7991 59.736 50.8571L59.7532 50.8654ZM67.5157 59.8627C56.9501 62.0665 46.6604 64.3365 36.2069 66.8717C36.7972 67.2249 37.3366 67.651 37.8112 68.1393C38.7341 69.4068 39.7087 69.0257 40.9766 68.6363C65.6786 60.4427 66.7308 60.5835 67.4898 59.8544L67.5157 59.8627ZM82.3852 48.438C88.647 48.6037 94.7362 50.0369 101.058 49.2665C101.058 49.2665 89.337 46.9053 84.8002 45.3974C84.7553 45.3658 84.704 45.3436 84.6496 45.3323C84.5951 45.3209 84.5388 45.3207 84.4843 45.3317C84.4298 45.3426 84.3783 45.3644 84.3332 45.3958C84.288 45.4271 84.2503 45.4672 84.2223 45.5134C83.6358 46.4413 83.0666 47.3278 82.3852 48.438ZM51.8613 29.1095C52.106 29.3826 52.3199 29.6797 52.4996 29.996C52.6721 30.2114 52.9567 30.4351 52.6721 30.8245C52.3875 31.2138 52.0338 30.9322 51.8096 30.8245C51.2317 30.6008 50.6625 30.2694 50.0242 30.0457C50.1632 30.2767 50.3189 30.4982 50.49 30.7085C50.7746 31.0979 51.5163 31.2635 51.4042 31.8186C51.2317 32.5311 50.4899 31.8683 49.8517 32.1997C50.551 32.2843 51.2172 32.5355 51.7897 32.9306C52.3621 33.3256 52.8226 33.8519 53.1292 34.4615L53.1896 34.5195C53.2411 34.6049 53.3138 34.6767 53.4013 34.7285C53.4888 34.7802 53.5883 34.8103 53.6908 34.8161C53.7934 34.8218 53.8959 34.803 53.989 34.7614C54.0822 34.7197 54.1631 34.6566 54.2246 34.5775C54.9146 34.0224 55.596 33.4673 56.2859 32.9785C56.4067 32.8625 56.5188 32.8128 56.4585 32.6471C55.8892 31.4872 55.3717 30.3274 54.7938 29.1095C54.6744 29.4476 54.6361 29.8073 54.6817 30.1617C54.7421 30.4351 54.9146 30.6588 54.5696 30.7665C54.0176 30.9819 53.2931 29.5983 51.8613 29.1095ZM91.4587 29.0598C89.8976 30.5511 91.5708 31.7523 91.6226 33.2519C93.2958 31.7026 95.1329 30.5428 96.5647 28.7781C96.0956 28.9184 95.6508 29.1251 95.2451 29.3912C95.0208 29.4989 94.7879 29.7143 94.4429 29.4989C94.0979 29.2835 94.3308 28.9438 94.4429 28.6704C94.5551 28.397 95.0208 27.9496 95.0208 27.4028C94.1244 27.7696 93.319 28.3145 92.6576 29.0018C92.2608 29.4989 91.8727 29.7723 91.4587 29.0598ZM81.4537 49.863H87.3791C85.6119 49.5517 83.8257 49.3497 82.0316 49.2582C81.6866 49.2002 81.5744 49.5316 81.4537 49.863Z" fill="#3C270B"/>
<path d="M141.268 24.6937C128.658 24.6937 119.947 26.0773 109.959 25.3068C109.001 25.2965 108.065 25.0266 107.26 24.528C107.108 24.4501 106.974 24.3427 106.867 24.2127C106.76 24.0827 106.682 23.9328 106.638 23.7725C106.595 23.6122 106.586 23.445 106.613 23.2813C106.639 23.1176 106.701 22.961 106.794 22.8213C107.372 21.8226 108.23 20.9991 109.269 20.4436C111.094 19.2546 113.267 18.6567 115.471 18.7369C117.394 18.7369 117.705 18.8115 118.119 17.2456C118.343 16.3592 118.515 15.481 118.809 14.5945C120.008 11.1149 124.553 9.68161 127.365 10.7338C129.202 11.3966 131.048 12.1091 132.824 12.8878C133.575 13.2192 134.144 13.2192 134.489 12.4405C134.63 12.1683 134.827 11.926 135.067 11.728C137.879 7.97494 141.967 8.02465 145.469 10.013C146.307 10.4199 147.05 10.9869 147.652 11.6792C148.254 12.3716 148.703 13.1747 148.97 14.0394C149.548 16.2515 150.98 16.9722 153.162 17.1877C154.31 17.276 155.423 17.6035 156.426 18.1471C157.428 18.6908 158.295 19.4377 158.967 20.3359C159.95 21.6035 159.657 22.5976 158.165 23.3184C156.64 23.8931 155.03 24.2288 153.395 24.3126C149.315 24.8594 145.296 24.6854 141.268 24.6937ZM149.255 23.6995C150.925 23.723 152.596 23.6511 154.257 23.4841C155.518 23.4681 156.765 23.2235 157.932 22.7633C159.087 22.2083 159.2 21.6035 158.397 20.6673C157.714 19.8646 156.855 19.2163 155.882 18.7681C154.909 18.32 153.845 18.083 152.765 18.0741C149.721 17.9084 149.082 17.519 148.168 14.7022C147.901 13.8143 147.447 12.9886 146.834 12.276C146.222 11.5635 145.463 10.9794 144.606 10.5598C141.613 9.06854 138.629 9.17624 136.326 12.1008C136.041 12.4902 135.696 12.8795 135.412 13.2607C134.489 14.4205 134.092 14.4785 132.764 13.8737C130.987 12.9873 129.202 12.2665 127.365 11.554C124.432 10.3941 120.413 12.2665 119.602 15.1413C118.498 19.0269 118.895 19.9051 115.41 19.9382C112.611 20.0645 109.972 21.2322 108.053 23.1941C107.536 23.6912 107.596 23.9729 108.338 24.2463C108.51 24.3043 108.743 24.354 108.916 24.412C110.175 24.9091 111.555 24.47 112.823 24.6357C117.653 25.2239 119.188 24.1386 134.886 23.6415C139.673 23.3996 144.47 23.419 149.255 23.6995Z" fill="#3C270B"/>
<path d="M33.8782 102.356C31.0664 102.795 28.3064 102.074 25.5464 101.577C21.2201 100.87 16.8316 100.576 12.445 100.699C10.5352 100.733 8.63263 100.936 6.76115 101.303C6.45965 101.376 6.14703 101.395 5.83828 101.361C3.37153 101.03 2.10365 100.201 3.54403 97.716C4.9844 95.2306 7.21828 94.2364 10.0904 94.4601C10.4479 94.5194 10.8158 94.4649 11.1381 94.3049C11.4604 94.1449 11.7194 93.8881 11.8758 93.5736C12.5977 92.4884 13.6606 91.652 14.9105 91.1858C16.1603 90.7196 17.5323 90.6477 18.8275 90.9805C22.3638 91.809 24.1147 92.6375 25.9518 91.0965C28.079 89.2468 30.7467 88.0697 33.5935 87.7246C35.8878 87.4512 37.8457 88.3294 39.6828 89.4892C40.9713 90.2457 41.963 91.3905 42.5032 92.7452C43.2449 94.6258 44.6249 95.1809 46.5828 95.0152C48.4729 94.7824 50.3936 95.028 52.1545 95.7277C52.9202 95.9903 53.5828 96.4735 54.052 97.1113C54.1854 97.2566 54.2808 97.4305 54.3302 97.6184C54.3796 97.8062 54.3816 98.0027 54.336 98.1915C54.2905 98.3803 54.1987 98.5559 54.0683 98.7037C53.9379 98.8516 53.7726 98.9674 53.5863 99.0416C51.8613 100.086 49.912 100.309 48.0145 100.864C45.3753 101.635 42.6757 101.635 39.9674 102.024C37.9482 102.271 35.9135 102.382 33.8782 102.356ZM35.0253 101.245C37.2678 101.361 39.0532 101.08 40.8299 101.03C44.2072 100.827 47.5464 100.232 50.7745 99.257C51.4873 99.0382 52.1639 98.7229 52.7842 98.3208C53.1895 98.1054 53.1895 97.8238 52.8963 97.5504C52.459 97.1412 51.9269 96.8374 51.3438 96.6639C49.6078 96.1024 47.7642 95.9157 45.9445 96.1171C45.0463 96.2205 44.1393 96.0093 43.39 95.5224C42.6406 95.0354 42.0992 94.3053 41.8649 93.4659C41.4336 92.165 40.5891 91.0264 39.4499 90.21C37.2678 88.7187 34.9735 87.9483 32.3257 88.8844C30.2271 89.5644 28.3081 90.6755 26.7022 92.1404C24.3303 94.3027 21.7342 92.7949 18.5429 92.0824C16.4125 91.5936 14.2908 91.925 13.135 93.6316C12.7537 94.3201 12.1492 94.8704 11.413 95.1993C10.6769 95.5282 9.84924 95.6177 9.0554 95.4543C8.13157 95.4179 7.21496 95.6249 6.40471 96.0527C5.59445 96.4806 4.92138 97.113 4.45828 97.8817C3.37153 99.5387 3.94078 100.417 5.95903 100.367C7.5029 100.309 9.11578 100.201 10.6683 100.036C15.1335 99.4668 19.6599 99.503 24.1147 100.144C27.901 100.632 31.6357 101.742 35.0253 101.245Z" fill="#3C270B"/>
<path d="M158.794 55.5463C158.587 57.3276 155.344 60.948 154.085 62.2819C152.151 64.3703 149.994 66.2585 147.651 67.9156C146.147 69.0653 144.335 69.7808 142.424 69.9785C138.793 70.1442 136.792 67.9404 134.204 66.6066C131.004 64.9496 130.927 64.9496 130.064 64.2371C128.745 63.1352 128.917 62.2487 130.582 61.7517C131.898 61.3447 133.126 60.7101 134.204 59.8793C136.481 58.2223 141.881 54.3865 143.399 52.2076C144.14 51.0477 144.779 50.766 146.159 51.2134C148.453 51.9259 150.635 52.8123 152.99 53.3591C154.542 53.6905 156.095 54.0799 157.647 54.4693C158.165 54.6681 158.742 54.8338 158.794 55.5463ZM157.19 56.2671C157.104 56.2671 148.444 58.0235 148.168 58.0898C146.788 58.4212 146.788 58.3632 146.9 59.6307C146.947 59.9138 146.935 60.2028 146.864 60.4813C146.794 60.7597 146.667 61.0221 146.49 61.2531C146.314 61.4842 146.092 61.6794 145.836 61.8275C145.581 61.9757 145.298 62.0738 145.003 62.1162L141.501 62.779C141.216 62.837 140.923 62.8867 141.096 63.3341C141.664 64.7698 142.032 66.2713 142.191 67.7996C142.251 68.4624 142.536 68.5701 143.166 68.4624C145.182 68.1267 147.08 67.3122 148.686 66.0929C152.36 63.6075 154.887 60.1278 157.19 56.2671ZM131.099 62.895C135.677 63.0581 140.258 62.6318 144.718 61.6274C144.907 61.5918 145.087 61.5206 145.247 61.4178C145.407 61.315 145.545 61.1828 145.651 61.0287C145.758 60.8746 145.832 60.7018 145.869 60.5201C145.905 60.3385 145.904 60.1516 145.865 59.9704C145.829 57.6409 145.502 55.3239 144.891 53.0692C144.597 52.2407 143.968 52.6466 143.856 53.0195C143.601 53.6126 143.229 54.1528 142.76 54.6102C140.113 57.307 137.163 59.7133 133.963 61.7848C133.074 62.2943 132.108 62.6661 131.099 62.8867V62.895ZM145.408 52.3567C145.964 53.8957 146.348 55.487 146.555 57.1039C146.616 57.7087 146.9 57.7087 147.366 57.543C148.28 57.3193 149.203 57.1039 150.117 56.9382C152.653 56.5488 155.06 55.886 157.707 55.3889C153.628 54.1131 149.427 53.8894 145.408 52.3484V52.3567ZM130.927 64.1045C131.272 64.2702 131.617 64.4856 131.962 64.6513C133.92 65.5378 135.929 66.4243 137.766 67.4682C138.697 68.0127 139.733 68.3706 140.811 68.5204C141.441 68.6281 141.734 68.4624 141.561 67.7996C141.216 66.4243 140.871 65.0407 140.587 63.6572C140.363 62.7044 139.845 63.2512 137.482 63.5992C135.3 63.8809 133.109 63.9968 130.927 64.1045Z" fill="#3C270B"/>
<path d="M146.21 99.373C143.561 98.384 141.14 96.9032 139.086 95.0152C137.054 93.0333 134.865 91.2051 132.54 89.5473C131.22 88.5531 131.16 87.8406 132.255 86.5647C133.35 85.2889 134.61 83.8639 135.817 82.5383C137.258 80.9973 136.317 80.1274 137.189 79.8872C137.534 79.7795 137.706 80.0031 137.939 80.1606C138.913 81.0164 140.07 81.6582 141.329 82.0412C143.441 82.6922 145.424 83.6809 147.193 84.9658C149.315 86.457 151.558 87.8406 153.74 89.2159C155.008 90.0443 155.18 91.1462 154.145 92.2481C152.859 93.459 151.703 94.7913 150.695 96.2248C150.274 96.915 149.907 97.6351 149.6 98.3789C149.451 98.6632 149.244 98.9156 148.991 99.1208C148.737 99.326 148.443 99.4797 148.127 99.5727C147.81 99.6656 147.476 99.6958 147.147 99.6615C146.818 99.6272 146.499 99.5291 146.21 99.373ZM139.31 86.7304C137.068 87.0121 135.118 87.2275 133.221 87.5589C132.816 87.6169 132.186 87.3435 132.065 87.9483C131.944 88.5531 132.531 88.7768 132.928 89.0502C135.76 90.8785 138.415 92.9469 140.863 95.2306C142.336 96.692 144.067 97.8899 145.977 98.7682C146.258 98.9341 146.571 99.0439 146.897 99.0908C147.223 99.1378 147.556 99.1211 147.875 99.0417C148.22 98.9339 148.504 98.7683 148.384 98.2712C147.857 96.0783 147.186 93.9199 146.374 91.809C145.805 90.4834 145.917 90.4834 144.425 90.4337C142.7 90.3757 141.32 89.8206 140.63 88.114C140.578 87.8903 140.397 87.7246 140.345 87.5092C140.121 86.9541 139.724 86.5481 139.31 86.7304ZM139.138 82.1489C140.112 84.0793 141.208 86.0676 142.01 88.114C142.173 88.6247 142.512 89.067 142.971 89.3681C143.43 89.6692 143.983 89.8113 144.537 89.7709C147.564 90.0029 151.126 89.307 153.274 90.1023C153.447 90.152 153.731 90.21 153.671 90.4337C153.61 90.6574 153.447 90.7071 153.214 90.7651C151.842 91.0551 149.419 90.4254 146.84 90.5994C147.754 92.6955 149.074 94.6258 149.074 96.9456C150.027 94.7216 151.574 92.7784 153.559 91.3119C154.309 90.7651 154.249 90.21 153.498 89.8207C148.686 87.2275 144.321 83.8639 139.146 82.1489H139.138ZM133.273 86.8464C135.173 86.2675 137.14 85.9142 139.129 85.7942C139.534 85.7942 139.474 85.5705 139.362 85.3551C138.87 84.1052 138.294 82.8875 137.637 81.7098C136.559 83.7479 134.998 85.1894 133.273 86.8464Z" fill="#3C270B"/>
<path d="M27.0385 28.4467C20.6646 28.2065 16.6885 25.3068 13.5404 20.9904C13.2886 20.6835 13.1516 20.3041 13.1516 19.9134C13.1516 19.5226 13.2886 19.1432 13.5404 18.8363C15.1004 16.6055 17.0427 14.6446 19.2846 13.037C21.0096 11.8771 21.6996 12.3162 22.7346 13.4761C24.724 15.5269 27.339 16.9191 30.2039 17.4528C31.6966 17.7535 33.2157 17.9172 34.7406 17.9416H37.0953C38.4753 17.9996 38.9928 18.9357 38.3028 20.0956C37.3761 21.4839 36.2461 22.7367 34.9476 23.8155C33.8957 24.6675 32.9675 25.6511 32.1876 26.74C31.8629 27.2251 31.3617 27.5766 30.7818 27.7259C29.5739 28.1284 28.3146 28.3709 27.0385 28.4467ZM13.8854 20.2696C13.8762 20.3672 13.8972 20.4652 13.9458 20.5513C14.1183 20.7667 14.2304 20.9324 14.4029 21.1561C16.0592 23.0282 18.0193 24.6313 20.2075 25.9033C22.3557 27.3738 24.9968 28.0235 27.6164 27.7259C28.6514 27.5602 29.4535 26.9472 30.4368 26.7815C30.937 26.6903 30.1608 26.1353 29.0568 23.2521C28.8239 22.6971 28.5393 22.6971 28.0735 22.9207C27.3972 23.2243 26.6846 23.4469 25.9518 23.5835C25.3917 23.7376 24.7934 23.7005 24.2587 23.4784C23.724 23.2564 23.286 22.8631 23.0193 22.3657C22.4107 21.4235 21.946 20.4023 21.6393 19.3334C21.5271 19.06 21.5271 18.7783 21.0096 18.8943C18.655 19.3417 16.3004 19.8968 13.8854 20.2696ZM37.3885 19.2754C31.2906 19.2754 25.8914 17.6765 21.3546 13.2606C21.5875 14.5862 21.76 15.7461 21.9843 16.848C22.1988 18.6189 22.6842 20.3497 23.4246 21.9846C23.5673 22.3185 23.8351 22.5889 24.1753 22.7423C24.5155 22.8957 24.9032 22.921 25.2618 22.813C29.5743 21.8437 26.6935 22.0674 34.0506 20.0542C35.1978 19.7311 36.2931 19.5654 37.3885 19.2837V19.2754ZM13.825 19.5571C16.24 19.1677 18.4825 18.4469 20.8975 18.1156C21.3546 18.0658 21.2943 17.7344 21.2425 17.4031C21.028 16.5103 20.8724 15.6055 20.7768 14.6939C20.725 14.2548 21.0096 13.65 20.5525 13.4843C20.0954 13.3186 19.69 13.8157 19.2846 14.0311C19.1725 14.0891 19.0518 14.1968 18.9396 14.2548C17.2619 15.6348 15.6936 17.133 14.2476 18.7369C14.028 18.9691 13.8814 19.2564 13.825 19.5654V19.5571ZM37.2678 19.8885C30.9888 21.6697 33.1709 20.8992 29.7985 22.0923C29.5139 22.2 29.2293 22.258 29.4535 22.6473C31.4028 25.8784 31.2993 26.5909 31.8081 25.8453C33.0156 24.2132 35.1719 23.161 37.2678 19.8968V19.8885Z" fill="#3C270B"/>
<path d="M77.4948 32.4814C78.4091 32.4814 78.7541 32.9206 78.642 33.6333C78.5757 33.8118 78.5379 33.999 78.5298 34.1885C78.4933 34.6209 78.29 35.0246 77.9597 35.3205C77.6294 35.6163 77.196 35.783 76.7445 35.7878C75.5715 35.854 73.1996 34.4288 74.4502 33.5255C75.3521 32.9268 76.4022 32.5667 77.4948 32.4814ZM77.6673 34.0227C77.952 33.2521 77.5466 33.1941 76.8566 33.4675C76.4857 33.6167 75.1316 33.7244 75.1316 34.1885C75.1316 34.6525 76.2614 34.9094 76.5029 34.9094C77.4344 35.0751 77.607 34.9591 77.6673 34.0227Z" fill="#3C270B"/>
<path d="M72.1472 27.6762C72.2148 27.6866 72.2787 27.713 72.3331 27.7529C72.3875 27.7929 72.4307 27.8451 72.4589 27.9051C72.4871 27.965 72.4994 28.0307 72.4947 28.0963C72.49 28.1619 72.4684 28.2254 72.4319 28.281C71.854 29.938 70.819 33.7241 70.0255 34.2958C69.853 34.4615 69.6201 34.6852 69.3872 34.5195C69.1544 34.3538 69.3872 34.0804 69.508 33.9147C70.198 32.092 70.888 30.2114 71.6297 28.397C71.6373 28.2424 71.6898 28.093 71.7813 27.9656C71.8727 27.8382 71.9995 27.7379 72.1472 27.6762Z" fill="#3C270B"/>
<path d="M75.0798 27.7839C75.0194 26.7898 75.3644 25.7956 74.6744 24.9174C74.6486 24.8761 74.6349 24.8289 74.6349 24.7807C74.6349 24.7325 74.6486 24.6853 74.6744 24.644C74.8469 24.4783 74.9677 24.528 75.1402 24.6937C76.063 25.4393 75.9509 28.1153 75.649 29.3912C75.5973 29.6066 75.5369 30.0457 75.1919 29.996C74.8469 29.9463 75.0194 29.5486 75.0194 29.3332C75.0194 28.7781 75.0798 28.281 75.0798 27.7839Z" fill="#3C270B"/>
<path d="M67.8348 32.2583C68.1913 31.2451 68.7155 30.2937 69.3873 29.4409C69.4454 29.3655 69.5262 29.3091 69.6188 29.2794C69.7114 29.2498 69.8113 29.2483 69.9048 29.2752C70.1981 29.3912 70.1377 29.6646 70.0256 29.8304C69.4477 30.7667 68.9302 31.6534 68.3523 32.5898C68.3006 32.6975 68.1798 32.8632 68.0073 32.7555C67.8348 32.6478 67.8348 32.4821 67.8348 32.2583Z" fill="#3C270B"/>
<path d="M77.4948 29.9377C77.5466 29.5484 77.3223 29.0018 77.952 29.0018C78.7541 29.0018 78.5298 29.7141 78.642 30.1614C78.7541 30.6087 78.5816 30.9317 78.1244 30.9317C77.3741 30.9897 77.4948 30.3767 77.4948 29.9377Z" fill="#3C270B"/>
<path d="M72.3198 30.7663C72.3802 30.377 72.4923 29.996 72.8373 30.0457C73.5273 30.1037 73.5273 30.7663 73.6394 31.2633C73.7516 31.7603 73.4152 31.8183 73.0702 31.8183C72.4319 31.7603 72.4319 31.2053 72.3198 30.7663Z" fill="#3C270B"/>
<path d="M74.2949 28.438C74.271 28.5046 74.2227 28.5606 74.1589 28.5955C74.0952 28.6304 74.0204 28.6419 73.9485 28.6277C73.8766 28.6134 73.8126 28.5746 73.7684 28.5183C73.7242 28.4621 73.7029 28.3923 73.7084 28.322C73.7507 27.7588 73.8636 27.2026 74.0447 26.6654C74.1051 26.4997 74.1569 26.3341 74.3897 26.3921C74.4644 26.4098 74.5295 26.4535 74.5725 26.5147C74.6156 26.5759 74.6334 26.6503 74.6226 26.7234C74.5908 27.3061 74.4806 27.8824 74.2949 28.438Z" fill="#3C270B"/>
<path d="M97.1425 75.5294C96.9064 76.0765 96.6386 76.6105 96.3404 77.1287C96.1247 77.5348 95.4175 77.5182 95.4175 76.7973C95.4262 76.1581 95.6501 75.5389 96.0557 75.0323C96.2627 74.6179 97.3667 74.7837 97.1425 75.5294Z" fill="#3C270B"/>
<path d="M94.6155 82.4057C94.8484 82.2897 95.1934 82.0743 95.3659 82.3477C95.5384 82.621 95.2451 82.8447 95.0726 82.9523C94.7044 83.3145 94.2524 83.5881 93.7533 83.7507C93.2542 83.9134 92.7221 83.9605 92.2005 83.8883C91.2172 83.7392 91.2 82.8529 92.0194 83.1097C92.8387 83.3665 94.1756 82.5879 94.6155 82.4057Z" fill="#3C270B"/>
</svg>
