<svg width="259" height="74" viewBox="0 0 259 74" fill="none" xmlns="http://www.w3.org/2000/svg">
<path d="M57.9829 60.4518H69.4099C77.8324 60.4518 83.1027 57.228 83.1027 47.0547C83.1027 38.0276 78.9159 34.8754 73.5964 34.7321V33.0126C77.1921 32.6544 80.5414 29.6454 80.5414 22.3377C80.5414 12.3793 75.6651 9.9434 67.1935 9.9434H57.9829V60.4518ZM62.0217 31.6514V14.9585H67.3412C73.0055 14.9585 76.5026 15.4599 76.5026 23.2691C76.5026 30.4335 73.0055 31.6514 67.3412 31.6514H62.0217ZM62.0217 55.4371V36.6664H69.5576C75.4683 36.6664 79.0639 38.6724 79.0639 46.0517C79.0639 54.0041 75.4683 55.4371 69.5576 55.4371H62.0217ZM95.0444 19.1854C97.0145 19.1854 98.5906 17.0361 98.5906 14.1704C98.5906 11.4479 97.0145 9.22697 95.0444 9.22697C93.0248 9.22697 91.4978 11.4479 91.4978 14.1704C91.4978 17.0361 93.0248 19.1854 95.0444 19.1854ZM86.8678 60.4518H104.452V55.4371H97.5562V28.4274C97.5562 25.7049 96.6696 23.8422 94.3546 24.1288L88.6906 24.8452V29.8603L93.7637 29.2155V55.4371H86.8678V60.4518ZM114.038 56.2251V29.8603H121.672V24.8452H114.038V13.8838L110.049 15.6749V24.8452H104.631V29.8603H110.049V56.2966C110.049 59.5924 111.083 61.3832 113.398 61.1684L122.658 60.4518V55.4371L114.038 56.2251ZM127.909 35.1619C127.909 49.9204 133.967 61.1684 144.163 61.1684C153.029 61.1684 158.841 53.4309 159.875 40.8934H155.836C155.048 50.5652 150.96 56.1532 144.163 56.1532C136.085 56.1532 131.948 47.4129 131.948 35.1619C131.948 22.9825 136.085 14.242 144.163 14.242C150.96 14.242 155.048 19.7586 155.836 29.4304H159.875C158.841 16.9644 153.029 9.22697 144.163 9.22697C133.967 9.22697 127.909 20.475 127.909 35.1619ZM162.181 60.4518H179.913V55.4371H173.066V12.0211C173.066 8.65385 171.983 6.79111 169.717 7.07768L164.004 7.79411V12.8091L169.077 12.1643V55.4371H162.181V60.4518ZM182.683 42.6128C182.683 53.0012 187.806 61.1684 195.638 61.1684C203.42 61.1684 208.493 53.0012 208.493 42.6128C208.493 32.2962 203.42 24.1288 195.638 24.1288C187.806 24.1288 182.683 32.2962 182.683 42.6128ZM186.723 42.6128C186.723 35.2336 189.826 29.1439 195.638 29.1439C201.401 29.1439 204.504 35.2336 204.504 42.6128C204.504 50.0637 201.401 56.1532 195.638 56.1532C189.826 56.1532 186.723 50.0637 186.723 42.6128ZM223.868 56.1532C219.633 56.1532 217.662 53.2875 217.662 45.8368V24.8452H213.623V46.6249C213.623 56.5114 217.219 61.1684 222.785 61.1684C228.104 61.1684 231.207 56.6548 232.192 50.207H233.325L232.685 54.2909V60.4518H236.674V24.8452H232.685V40.6785C232.685 50.207 229.04 56.1532 223.868 56.1532ZM250.354 56.2251V29.8603H257.988V24.8452H250.354V13.8838L246.365 15.6749V24.8452H240.947V29.8603H246.365V56.2966C246.365 59.5924 247.399 61.3832 249.714 61.1684L258.974 60.4518V55.4371L250.354 56.2251Z" fill="black"/>
<path fill-rule="evenodd" clip-rule="evenodd" d="M3.50288 43.2045L3.19099 42.6681C3.18864 42.6609 3.18634 42.6535 3.18408 42.6462C3.25033 42.8613 3.35645 43.0557 3.50288 43.2045Z" fill="black"/>
<path d="M34.8319 41.3356C35.2279 41.3356 35.449 42.0005 35.2032 42.4522L20.0232 70.3385C19.8375 70.6797 19.4835 70.688 19.2903 70.356L3.50285 43.2046M3.50285 43.2046L3.19096 42.6682M3.50285 43.2046C3.35642 43.0558 3.25031 42.8613 3.18406 42.6463M3.50285 43.2046C3.36141 43.0608 3.25758 42.8746 3.19096 42.6682M3.50285 43.2046C3.52372 43.2258 3.54541 43.246 3.56792 43.2653L18.7001 56.2213C19.0018 56.4799 19.3768 56.4751 19.6754 56.2092L35.0991 42.4679C35.7401 41.8969 35.6903 40.5194 35.0118 40.0491L27.3138 34.7151L26.3516 34.0483M3.43691 41.3356C3.03376 41.3356 2.81496 42.0215 3.0753 42.4692L3.19096 42.6682M3.19096 42.6682C3.18861 42.6609 3.18631 42.6536 3.18406 42.6463M3.18406 42.6463C2.99061 42.0182 3.13697 41.214 3.61182 40.8553L11.1919 35.1287L13.0869 33.697" stroke="black" stroke-width="5.66848"/>
<path d="M34.8322 15.4888C35.2281 15.4888 35.4491 16.1537 35.2035 16.6053L20.0234 44.4918C19.8377 44.8329 19.4837 44.8414 19.2905 44.5091L3.07555 16.6225C2.8152 16.1748 3.034 15.4888 3.43716 15.4888M35.0121 14.2023L19.6161 3.53408C19.3481 3.34834 19.0356 3.35616 18.7722 3.55522L3.61206 15.0083C2.95141 15.5074 2.92661 16.869 3.56816 17.4183L18.7003 30.3746C19.002 30.6328 19.3771 30.6281 19.6756 30.3622L35.0994 16.621C35.7402 16.05 35.6908 14.6725 35.0121 14.2023Z" stroke="black" stroke-width="5.66848"/>
</svg>
