<svg width="254" height="68" viewBox="0 0 254 68" fill="none" xmlns="http://www.w3.org/2000/svg">
<mask id="mask0_40_494" style="mask-type:luminance" maskUnits="userSpaceOnUse" x="0" y="0" width="254" height="68">
<path d="M253.711 0H0V68H253.711V0Z" fill="white"/>
</mask>
<g mask="url(#mask0_40_494)">
<path d="M89.5551 39.166L88.0428 44.5428H87.9167C87.6646 43.3303 87.2029 41.4854 86.4465 39.2714L78.3396 13.7055H70.4005V54.4529H75.6514V29.3086C75.6514 27.7273 75.6513 25.935 75.6092 23.721C75.5674 22.6141 75.4831 21.7706 75.4414 21.1381H75.5674C75.8192 22.7195 76.1134 23.8792 76.3234 24.6172L86.0687 54.3476H89.7651L99.4261 24.3536C99.6361 23.6683 99.8465 22.2978 100.056 21.1381H100.182C100.056 24.1428 99.9721 26.8311 99.9304 28.4652V54.2947H105.517V13.6001H97.872L89.5551 39.166ZM110.809 25.0916H116.27V54.2947H110.809V25.0916ZM113.582 12.7567C112.658 12.7567 111.902 13.1784 111.272 13.9164C110.642 14.6544 110.306 15.6032 110.306 16.7629C110.306 17.8699 110.642 18.8187 111.272 19.5567C111.902 20.2947 112.658 20.6637 113.582 20.6637C114.506 20.6637 115.304 20.242 115.892 19.5567C116.522 18.8187 116.858 17.8699 116.858 16.7629C116.858 15.6559 116.522 14.7071 115.892 13.9164C115.346 13.1784 114.548 12.7567 113.582 12.7567ZM135.635 24.828C134.626 24.5645 133.577 24.4063 132.568 24.4063C130.09 24.4063 127.822 25.0916 125.931 26.4621C124.041 27.8327 122.529 29.7303 121.563 32.1024C120.555 34.5273 120.051 37.321 120.051 40.5366C120.051 43.3303 120.555 45.8078 121.521 48.0746C122.487 50.2883 123.831 52.0809 125.637 53.2931C127.36 54.5058 129.376 55.1381 131.644 55.1381C134.249 55.1381 136.475 54.4529 138.239 53.1878L138.281 53.1349V46.8094L138.071 47.0203C137.273 47.7582 136.349 48.3909 135.425 48.7598C134.459 49.1814 133.577 49.3925 132.82 49.3925C130.636 49.3925 128.914 48.6016 127.696 46.8621C126.436 45.1753 125.806 42.8559 125.806 39.9567C125.806 36.9521 126.436 34.58 127.738 32.8404C129.04 31.1009 130.762 30.2048 132.862 30.2048C134.626 30.2048 136.433 30.9428 138.071 32.4187L138.281 32.6296V25.935L138.239 25.8823C137.525 25.5133 136.727 25.0916 135.635 24.828ZM153.655 24.6172C152.311 24.6172 151.051 25.1443 149.959 26.2513C149.034 27.2001 148.404 28.5706 147.858 30.2048H147.816V25.0916H142.356V54.2947H147.816V39.3768C147.816 36.8466 148.236 34.7381 149.16 33.2094C150.085 31.628 151.261 30.8373 152.689 30.8373C153.193 30.8373 153.697 30.9955 154.327 31.1009C154.915 31.3118 155.335 31.5226 155.629 31.7861L155.839 31.997V25.1443L155.713 25.0916C155.335 24.7753 154.579 24.6172 153.655 24.6172ZM168.525 24.459C164.702 24.459 161.636 25.8823 159.494 28.6761C157.31 31.4699 156.259 35.3179 156.259 40.1675C156.259 44.7009 157.351 48.3909 159.452 51.0793C161.552 53.7148 164.408 55.0852 167.979 55.0852C171.717 55.0852 174.699 53.6619 176.842 50.8158C179.026 47.9693 180.076 44.1738 180.076 39.4823C180.076 34.8435 179.068 31.1536 177.01 28.4652C175.036 25.7768 172.137 24.459 168.525 24.459ZM172.893 46.9148C171.885 48.5491 170.289 49.3396 168.315 49.3396C166.341 49.3396 164.744 48.5491 163.61 46.8094C162.476 45.1753 161.93 42.8032 161.93 39.7986C161.93 36.6885 162.518 34.3164 163.61 32.6296C164.744 30.9428 166.299 30.0993 168.273 30.0993C170.205 30.0993 171.717 30.89 172.809 32.5241C173.902 34.1583 174.489 36.5303 174.489 39.6404C174.405 42.8032 173.943 45.2807 172.893 46.9148ZM192.258 37.2156C190.535 36.3195 189.443 35.6342 188.939 35.0544C188.519 34.5273 188.309 33.7893 188.309 32.8404C188.309 32.0497 188.561 31.259 189.191 30.7319C189.822 30.2048 190.535 29.9412 191.586 29.9412C192.51 29.9412 193.476 30.152 194.4 30.4683C195.324 30.7846 196.164 31.259 196.836 31.8916L197.046 32.1024V25.6714L196.92 25.6187C196.29 25.3024 195.45 24.9861 194.442 24.7226C193.434 24.5118 192.51 24.4063 191.753 24.4063C189.149 24.4063 187.007 25.197 185.327 26.9365C183.646 28.5706 182.848 30.7846 182.848 33.3676C182.848 34.7381 183.017 35.9505 183.394 36.952C183.773 37.9536 184.319 38.9024 185.075 39.6931C185.831 40.4311 186.923 41.2745 188.435 42.0652C189.695 42.7505 190.661 43.2776 191.25 43.6993C191.838 44.121 192.216 44.5955 192.51 44.9645C192.72 45.3862 192.846 45.9133 192.846 46.5986C192.846 48.5491 191.67 49.4978 189.275 49.4978C188.351 49.4978 187.385 49.2868 186.251 48.8126C185.117 48.3381 184.067 47.6529 183.184 46.8621L182.974 46.6513V53.346L183.1 53.3984C183.899 53.873 184.865 54.1894 186.041 54.5582C187.217 54.8217 188.267 55.0328 189.191 55.0328C192.006 55.0328 194.316 54.2418 195.954 52.5026C197.634 50.8158 198.516 48.6544 198.516 45.8606C198.516 43.9102 198.096 42.1706 197.172 40.8528C195.954 39.5877 194.442 38.2699 192.258 37.2156ZM212.924 24.459C209.102 24.459 206.035 25.8823 203.893 28.6761C201.751 31.4699 200.659 35.3179 200.659 40.1675C200.659 44.7009 201.751 48.3909 203.851 51.0793C205.951 53.7148 208.808 55.0852 212.378 55.0852C216.117 55.0852 219.099 53.6619 221.241 50.8158C223.426 47.9693 224.476 44.1738 224.476 39.4823C224.476 34.8435 223.467 31.1536 221.409 28.4652C219.435 25.7768 216.537 24.459 212.924 24.459ZM217.251 46.9148C216.242 48.5491 214.647 49.3396 212.672 49.3396C210.656 49.3396 209.102 48.5491 207.968 46.8094C206.833 45.1753 206.288 42.8032 206.288 39.7986C206.288 36.6885 206.875 34.3164 207.968 32.6296C209.102 30.9428 210.656 30.0993 212.63 30.0993C214.52 30.0993 216.075 30.89 217.167 32.5241C218.259 34.1583 218.847 36.5303 218.847 39.6404C218.847 42.8032 218.301 45.2807 217.251 46.9148ZM253.669 30.7319V25.0916H248.167V16.4466L247.998 16.4993L242.79 18.4497L242.664 18.5024V25.0916H234.431V21.4017C234.431 19.7148 234.767 18.397 235.355 17.5536C235.943 16.7102 236.825 16.2885 237.917 16.2885C238.673 16.2885 239.472 16.4993 240.354 16.9738L240.564 17.1319V11.1753L240.438 11.1226C239.682 10.8063 238.673 10.5955 237.371 10.5955C235.733 10.5955 234.305 11.0699 233.003 11.8606C231.701 12.7567 230.734 13.9691 230.02 15.6032C229.306 17.1846 228.928 18.9768 228.928 21.0327V25.0916H225.106V30.6792H228.928V54.2947H234.431V30.7319H242.664V45.7551C242.664 51.9227 244.974 55.0328 249.595 55.0328C250.351 55.0328 251.149 54.8746 251.905 54.7164C252.703 54.5058 253.291 54.2418 253.627 54.0312L253.669 53.9783V48.3381L253.459 48.5491C253.123 48.8126 252.829 49.0233 252.325 49.1814C251.905 49.3396 251.527 49.3925 251.233 49.3925C250.141 49.3925 249.385 49.0761 248.839 48.2852C248.334 47.5476 248.082 46.335 248.082 44.5428V30.7319H253.669Z" fill="black"/>
<path d="M0 0H25.7492V32.3132H0V0Z" fill="black"/>
<path d="M28.4376 0H54.1866V32.3132H28.4376V0Z" fill="black"/>
<path d="M0 35.687H25.7492V68.0001H0V35.687Z" fill="black"/>
<path d="M28.4376 35.687H54.1866V68.0001H28.4376V35.687Z" fill="black"/>
</g>
</svg>
