<svg width="254" height="70" viewBox="0 0 254 70" fill="none" xmlns="http://www.w3.org/2000/svg">
<mask id="mask0_40_470" style="mask-type:luminance" maskUnits="userSpaceOnUse" x="0" y="0" width="254" height="70">
<path d="M253.954 0H0V70H253.954V0Z" fill="white"/>
</mask>
<g mask="url(#mask0_40_470)">
<path d="M59.1859 25.8806H37.7123L36.9166 27.2129V69.9878H42.8611V53.9476L43.4286 52.8091H59.1868C63.1655 52.8091 65.031 50.4121 65.031 44.2615V34.4401C65.0301 28.2794 63.1655 25.8806 59.1859 25.8806ZM59.1859 41.6947C59.1859 44.5924 58.3299 45.1943 56.4646 45.1943H43.4935L42.8602 43.8157V34.6527L43.4277 33.4902H56.4646C58.3299 33.4902 59.1859 34.0851 59.1859 36.9966V41.6947Z" fill="black"/>
<path d="M75.8706 33.9731L80.9858 50.7543L80.7025 52.3799H69.3901L66.5026 60.3336H83.3412L84.5083 61.9252L87.1226 69.9995H93.9254L79.0141 25.3347" fill="black"/>
<path d="M143.514 61.3107V49.4384L144.126 48.2554H155.507V40.6956H137.469V69.997H164.076V62.4729H144.153" fill="black"/>
<path d="M164.357 25.8806H137.469V34.1932H164.357V25.8806Z" fill="black"/>
<path d="M107.481 33.7528H129.142C128.808 27.5852 127.099 25.874 122.763 25.874H107.25C102.358 25.874 100.797 28.0121 100.797 36.3024V59.5612C100.797 67.8601 102.358 69.9985 107.25 69.9985H122.763C127.163 69.9985 128.847 68.1484 128.962 61.7512H107.481L106.844 60.4085V34.6512" fill="black"/>
<path d="M22.4618 43.0696H6.70352L6.23948 41.926V34.3781L6.70122 33.5791H27.9445L28.2348 31.9897C27.5112 27.8213 25.6372 25.877 22.1579 25.877H7.40111C2.51182 25.877 0.948937 28.0151 0.948937 36.3054V41.1818C0.948937 49.4823 2.51182 51.6173 7.40111 51.6173H23.1241L23.618 52.5876V60.4781L23.2153 61.7095H5.23021V61.6715H0.519356C0.519356 61.6715 -0.019729 62.2768 0.000946064 62.5597C0.402961 68.359 2.16724 70.0016 6.3911 70.0016H22.4618C27.3503 70.0016 28.9598 67.8631 28.9598 59.5643V53.4893C28.9598 45.2043 27.3503 43.0696 22.4618 43.0696Z" fill="black"/>
<path d="M181.271 25.6992H172.426L171.946 27.7448L181.769 43.7783C183.629 41.3659 185.654 38.9208 187.856 36.5083" fill="black"/>
<path d="M189.196 55.9009L197.83 69.9987H206.783L207.154 68.1315L194.262 47.002C192.55 49.8158 190.858 52.7869 189.196 55.9009Z" fill="black"/>
<path d="M179.954 69.9674H171.952L171.275 67.5962C176.717 55.8318 201.054 5.40283 253.954 0C253.954 0 209.552 3.35383 179.954 69.9674Z" fill="black"/>
</g>
</svg>
