<svg width="261" height="69" viewBox="0 0 261 69" fill="none" xmlns="http://www.w3.org/2000/svg">
<mask id="mask0_40_484" style="mask-type:luminance" maskUnits="userSpaceOnUse" x="0" y="0" width="236" height="69">
<path d="M235.017 0H0.0944824V69H235.017V0Z" fill="white"/>
</mask>
<g mask="url(#mask0_40_484)">
<path fill-rule="evenodd" clip-rule="evenodd" d="M145.836 53.9599C132.184 63.7675 112.397 69 95.3604 69C71.472 69 49.9666 60.3889 33.6971 46.0664C32.4189 44.9401 33.5642 43.4053 35.0981 44.2823C52.6563 54.2392 74.3663 60.2293 96.792 60.2293C111.916 60.2293 128.554 57.1794 143.852 50.8506C146.163 49.8937 148.096 52.3254 145.836 53.9599Z" fill="black"/>
<path fill-rule="evenodd" clip-rule="evenodd" d="M151.512 47.6313C149.773 45.4585 139.976 46.6047 135.579 47.113C134.24 47.2725 134.035 46.1363 135.242 45.319C143.044 39.9669 155.847 41.5117 157.34 43.3057C158.834 45.1097 156.952 57.6179 149.62 63.5879C148.495 64.505 147.421 64.0167 147.922 62.8006C149.569 58.7943 153.26 49.8142 151.512 47.6313Z" fill="black"/>
<path fill-rule="evenodd" clip-rule="evenodd" d="M135.886 7.53485V2.33222C135.886 1.54484 136.5 1.0166 137.236 1.0166H161.134C161.901 1.0166 162.515 1.55481 162.515 2.33222V6.78735C162.505 7.53485 161.86 8.51163 160.715 10.0565L148.331 27.289C152.933 27.1794 157.79 27.8472 161.962 30.1395C162.903 30.6578 163.159 31.4153 163.231 32.1628V37.7143C163.231 38.4717 162.371 39.3588 161.472 38.9003C154.119 35.1428 144.353 34.7342 136.223 38.9402C135.395 39.3787 134.526 38.5016 134.526 37.7442V32.4717C134.526 31.6246 134.536 30.1794 135.405 28.8937L149.753 8.84053H137.267C136.5 8.84053 135.886 8.3123 135.886 7.53485Z" fill="black"/>
<path fill-rule="evenodd" clip-rule="evenodd" d="M48.7091 39.9967H41.4383C40.743 39.9469 40.1908 39.4385 40.1396 38.7907V2.42197C40.1396 1.6944 40.7634 1.11632 41.5406 1.11632H48.3205C49.0261 1.1462 49.5885 1.67446 49.6396 2.33226V7.0864H49.7724C51.5418 2.49174 54.8652 0.348877 59.344 0.348877C63.895 0.348877 66.7376 2.49174 68.7828 7.0864C70.5419 2.49174 74.5403 0.348877 78.8249 0.348877C81.872 0.348877 85.2058 1.57479 87.2406 4.32562C89.5415 7.3854 89.0715 11.8306 89.0715 15.7276L89.0611 38.6811C89.0611 39.4086 88.4373 39.9967 87.66 39.9967H80.3996C79.6734 39.9469 79.0909 39.3787 79.0909 38.6811V19.4053C79.0909 17.8705 79.2339 14.0432 78.8863 12.5881C78.3441 10.1462 76.7182 9.45851 74.6116 9.45851C72.853 9.45851 71.0119 10.6047 70.2656 12.4386C69.5193 14.2725 69.5906 17.3422 69.5906 19.4053V38.6811C69.5906 39.4086 68.9667 39.9967 68.1899 39.9967H60.929C60.193 39.9469 59.6203 39.3787 59.6203 38.6811L59.6099 19.4053C59.6099 15.3489 60.2953 9.37878 55.1312 9.37878C49.9056 9.37878 50.1101 15.1994 50.1101 19.4053V38.6811C50.1101 39.4086 49.4863 39.9967 48.7091 39.9967Z" fill="black"/>
<path fill-rule="evenodd" clip-rule="evenodd" d="M183.09 0.348877C193.878 0.348877 199.717 9.37878 199.717 20.8605C199.717 31.9535 193.264 40.7542 183.09 40.7542C172.495 40.7542 166.728 31.7243 166.728 20.4718C166.728 9.14955 172.567 0.348877 183.09 0.348877ZM183.151 7.77415C177.792 7.77415 177.455 14.8904 177.455 19.3256C177.455 23.7708 177.383 33.2592 183.09 33.2592C188.724 33.2592 188.99 25.6047 188.99 20.9402C188.99 17.8705 188.857 14.2027 187.906 11.2924C187.088 8.76085 185.462 7.77415 183.151 7.77415Z" fill="black"/>
<path fill-rule="evenodd" clip-rule="evenodd" d="M213.707 39.9967H206.466C205.74 39.9469 205.158 39.3787 205.158 38.6811L205.147 2.30236C205.209 1.63459 205.812 1.11632 206.548 1.11632H213.287C213.921 1.1462 214.443 1.56483 214.586 2.13293V7.69436H214.719C216.754 2.72097 219.607 0.348877 224.628 0.348877C227.89 0.348877 231.07 1.49506 233.116 4.63459C235.017 7.54486 235.017 12.4386 235.017 15.9568V38.8505C234.936 39.4884 234.332 39.9967 233.617 39.9967H226.325C225.661 39.9469 225.108 39.4684 225.037 38.8505V19.0964C225.037 15.1196 225.507 9.29905 220.486 9.29905C218.717 9.29905 217.091 10.4552 216.283 12.2093C215.261 14.4319 215.128 16.6445 215.128 19.0964V38.6811C215.118 39.4086 214.484 39.9967 213.707 39.9967Z" fill="black"/>
<path fill-rule="evenodd" clip-rule="evenodd" d="M116.835 22.6246C116.835 25.3854 116.907 27.6877 115.475 30.1395C114.32 32.1329 112.479 33.3588 110.444 33.3588C107.652 33.3588 106.016 31.2857 106.016 28.2259C106.016 22.186 111.569 21.0897 116.835 21.0897V22.6246ZM124.167 39.897C123.687 40.3156 122.991 40.3455 122.449 40.0664C120.036 38.113 119.596 37.2059 118.277 35.3422C114.289 39.309 111.456 40.495 106.292 40.495C100.167 40.495 95.4116 36.8172 95.4116 29.4518C95.4116 23.701 98.6023 19.7841 103.163 17.8704C107.11 16.1761 112.622 15.8771 116.835 15.4086V14.4917C116.835 12.8073 116.968 10.814 115.946 9.35879C115.066 8.05315 113.368 7.51495 111.865 7.51495C109.094 7.51495 106.63 8.90032 106.026 11.7708C105.904 12.4086 105.423 13.0365 104.758 13.0664L97.7125 12.3289C97.1196 12.1993 96.4549 11.7309 96.6284 10.8439C98.2444 2.51163 105.975 0 112.888 0C116.426 0 121.048 0.916947 123.84 3.52824C127.378 6.74752 127.041 11.0432 127.041 15.7176V26.7608C127.041 30.0797 128.452 31.5349 129.781 33.3289C130.241 33.9668 130.344 34.7342 129.751 35.2126C128.268 36.4186 125.629 38.6611 124.177 39.9169L124.167 39.897Z" fill="black"/>
<path fill-rule="evenodd" clip-rule="evenodd" d="M21.5181 22.6248C21.5181 25.3856 21.5896 27.6879 20.158 30.1398C19.0024 32.1331 17.172 33.359 15.1268 33.359C12.335 33.359 10.7091 31.2859 10.7091 28.2262C10.7091 22.1863 16.2618 21.0899 21.5181 21.0899V22.6248ZM28.8501 39.8972C28.3695 40.3158 27.6741 40.3457 27.1322 40.0667C24.7188 38.1132 24.2893 37.2062 22.9599 35.3424C18.9718 39.3092 16.1494 40.4952 10.975 40.4952C4.85981 40.4952 0.0944824 36.8175 0.0944824 29.4521C0.0944824 23.7012 3.29523 19.7843 7.84584 17.8706C11.7931 16.1763 17.3049 15.8773 21.5181 15.4089V14.4919C21.5181 12.8075 21.651 10.8142 20.6386 9.35907C19.7489 8.05339 18.0514 7.51519 16.5584 7.51519C13.7872 7.51519 11.3124 8.90055 10.7091 11.771C10.5864 12.4089 10.1058 13.0368 9.45132 13.0667L2.39534 12.3291C1.80223 12.1996 1.14776 11.7311 1.31138 10.8441C2.93732 2.51188 10.658 0.000244141 17.5708 0.000244141C21.109 0.000244141 25.7312 0.91719 28.5229 3.52848C32.0611 6.74775 31.7236 11.0434 31.7236 15.7178V26.761C31.7236 30.08 33.1348 31.5351 34.4642 33.3291C34.9346 33.967 35.0369 34.7344 34.4438 35.2128C32.961 36.4188 30.3227 38.6614 28.8706 39.9172L28.8501 39.8972Z" fill="black"/>
</g>
</svg>
