<svg width="257" height="72" viewBox="0 0 257 72" fill="none" xmlns="http://www.w3.org/2000/svg">
<mask id="mask0_163_17" style="mask-type:luminance" maskUnits="userSpaceOnUse" x="0" y="0" width="257" height="72">
<path d="M256.839 0H0V72H256.839V0Z" fill="white"/>
</mask>
<g mask="url(#mask0_163_17)">
<path fill-rule="evenodd" clip-rule="evenodd" d="M39.3539 16.8592C39.3539 26.1712 34.0134 33.7204 27.4253 33.7204C20.8369 33.7204 15.4963 26.1712 15.4963 16.8592C15.4963 7.5491 20.8369 0 27.4253 0C34.0134 0 39.3539 7.5491 39.3539 16.8592ZM11.929 37.9357C5.34083 37.9357 0 45.4826 0 54.7945C0 64.106 5.34083 71.6545 11.929 71.6545C18.5174 71.6545 23.8585 64.106 23.8585 54.7945C23.8585 45.4826 18.5174 37.9357 11.929 37.9357ZM42.9215 37.9342C36.3332 37.9342 30.9924 45.4826 30.9924 54.7945C30.9924 64.106 36.3332 71.6545 42.9215 71.6545C49.5094 71.6545 54.8502 64.106 54.8502 54.7945C54.8502 45.4826 49.5094 37.9342 42.9215 37.9342Z" fill="black"/>
<path fill-rule="evenodd" clip-rule="evenodd" d="M96.8254 54.595C96.9809 57.096 98.3964 60.28 100.849 60.28H102.284C102.84 60.28 103.296 59.6355 103.296 58.8485V14.248H103.289C103.26 13.4966 102.821 12.8948 102.284 12.8948H97.8375C97.2998 12.8948 96.8604 13.4966 96.8307 14.248H96.8254V17.8721C94.1013 13.1263 89.8062 11.1565 85.4994 11.1565C75.7097 11.1565 67.7734 22.3815 67.7734 36.2292C67.7734 50.0775 75.7097 61.303 85.4994 61.303V61.304C89.8062 61.304 94.5 58.941 96.8247 54.5895L96.8254 54.595ZM85.5167 52.528C79.2904 52.528 74.243 45.2313 74.243 36.2292C74.243 27.2286 79.2904 19.9317 85.5167 19.9317C91.7427 19.9317 96.7897 27.2286 96.7897 36.2292C96.7897 45.2313 91.7427 52.528 85.5167 52.528Z" fill="black"/>
<path fill-rule="evenodd" clip-rule="evenodd" d="M169.264 54.595C169.419 57.096 170.835 60.28 173.287 60.28H174.722C175.278 60.28 175.734 59.6355 175.734 58.8485V14.248H175.728C175.699 13.4966 175.259 12.8948 174.722 12.8948H170.276C169.738 12.8948 169.299 13.4966 169.269 14.248H169.264V17.8721C166.539 13.1263 162.244 11.1565 157.937 11.1565C148.148 11.1565 140.212 22.3815 140.212 36.2292C140.212 50.0775 148.148 61.303 157.937 61.303V61.304C162.244 61.304 166.938 58.941 169.263 54.5895L169.264 54.595ZM157.955 52.528C151.729 52.528 146.681 45.2313 146.681 36.2292C146.681 27.2286 151.729 19.9317 157.955 19.9317C164.181 19.9317 169.228 27.2286 169.228 36.2292C169.228 45.2313 164.181 52.528 157.955 52.528Z" fill="black"/>
<path fill-rule="evenodd" clip-rule="evenodd" d="M250.241 54.595C250.396 57.096 251.812 60.28 254.264 60.28H255.699C256.256 60.28 256.712 59.6355 256.712 58.8485V14.248H256.705C256.676 13.4966 256.237 12.8948 255.699 12.8948H251.253C250.715 12.8948 250.276 13.4966 250.247 14.248H250.241V17.8721C247.517 13.1263 243.222 11.1565 238.915 11.1565C229.125 11.1565 221.189 22.3815 221.189 36.2292C221.189 50.0775 229.125 61.303 238.915 61.303V61.304C243.222 61.304 247.916 58.941 250.241 54.5895L250.241 54.595ZM238.933 52.528C232.706 52.528 227.658 45.2313 227.658 36.2292C227.658 27.2286 232.706 19.9317 238.933 19.9317C245.159 19.9317 250.206 27.2286 250.206 36.2292C250.206 45.2313 245.159 52.528 238.933 52.528Z" fill="black"/>
<path fill-rule="evenodd" clip-rule="evenodd" d="M215.569 56.1285L215.567 33.0498H215.568C215.568 20.0403 209.765 11.2639 200.512 11.2639C196.095 11.2639 192.474 14.8766 191.195 17.9799C190.919 15.5533 190.008 13.0027 187.183 13.0027H185.744C185.187 13.0027 184.732 13.6475 184.732 14.4343V54.7065V54.713V59.0385H184.738C184.767 59.789 185.207 60.3915 185.744 60.3915H190.191C190.259 60.3915 190.325 60.38 190.39 60.362C190.419 60.354 190.447 60.338 190.475 60.3265C190.509 60.312 190.543 60.301 190.574 60.2825C190.614 60.2595 190.65 60.228 190.687 60.1995C190.705 60.1835 190.723 60.1725 190.741 60.1565C190.785 60.116 190.826 60.067 190.865 60.0175C190.872 60.008 190.879 60.002 190.886 59.9935C190.93 59.933 190.971 59.8665 191.006 59.7975L191.007 59.796C191.118 59.58 191.185 59.3195 191.196 59.0385H191.202V32.692C191.202 25.705 195.207 20.0403 200.147 20.0403C205.088 20.0403 209.092 25.705 209.092 32.692L209.096 54.7145L209.098 54.7065C209.098 54.726 209.1 54.7465 209.1 54.767V59.0385H209.105C209.135 59.789 209.574 60.3915 210.112 60.3915H214.558C214.627 60.3915 214.693 60.38 214.757 60.362C214.784 60.3555 214.808 60.3405 214.834 60.33C214.87 60.3155 214.908 60.3025 214.943 60.2825C214.979 60.2615 215.012 60.2315 215.047 60.204C215.067 60.1875 215.089 60.1755 215.109 60.1565C215.15 60.118 215.188 60.072 215.225 60.0265C215.235 60.0145 215.245 60.005 215.254 59.9925C215.296 59.935 215.334 59.873 215.368 59.808C215.37 59.803 215.373 59.799 215.376 59.7945C215.485 59.58 215.552 59.3215 215.564 59.0425C215.564 59.0405 215.564 59.0385 215.564 59.0385H215.57V56.1295L215.569 56.1285Z" fill="black"/>
<path fill-rule="evenodd" clip-rule="evenodd" d="M113.918 48.2072C116.886 51.1156 120.126 52.5281 123.239 52.5281C126.206 52.5281 129.272 50.3531 129.272 46.5678C129.272 41.5136 122.59 40.7272 118.392 38.7091C114.193 36.6909 110.577 32.5191 110.577 25.7632C110.577 15.4254 117.089 11.1558 123.167 11.1558C127.018 11.1558 130.992 12.952 133.568 15.5251C134.456 16.476 133.915 17.5676 133.915 17.5676L131.456 22.5354C131.18 23.0949 130.696 23.5783 130.003 22.9727C129.309 22.3675 126.876 19.9314 123.167 19.9314C119.459 19.9314 117.225 22.3538 117.225 25.3563C117.225 28.9567 120.129 30.0891 123.529 31.3163C129.455 33.5758 135.92 36.2917 135.92 46.5678C135.92 55.6761 129.897 61.3051 123.239 61.3051C118.195 61.3051 113.899 59.2711 110.297 55.5316C109.547 54.4696 110.071 53.4831 110.071 53.4831L112.518 48.5406C113.016 47.6164 113.643 47.9388 113.918 48.2072Z" fill="black"/>
</g>
</svg>
