<svg width="254" height="81" viewBox="0 0 254 81" fill="none" xmlns="http://www.w3.org/2000/svg">
<path d="M108.024 41.5388C108.024 52.7819 98.7005 61.0666 87.2592 61.0666C75.8172 61.0666 66.4938 52.7819 66.4938 41.5388C66.4938 30.2164 75.8172 22.0107 87.2592 22.0107C98.7005 22.0107 108.024 30.2164 108.024 41.5388ZM98.9336 41.5388C98.9336 34.5129 93.5305 29.7057 87.2592 29.7057C80.9873 29.7057 75.5841 34.5129 75.5841 41.5388C75.5841 48.4942 80.9873 53.3718 87.2592 53.3718C93.5305 53.3718 98.9336 48.4854 98.9336 41.5388Z" fill="black"/>
<path d="M152.82 41.5388C152.82 52.7819 143.497 61.0666 132.055 61.0666C120.614 61.0666 111.29 52.7819 111.29 41.5388C111.29 30.2252 120.614 22.0107 132.055 22.0107C143.497 22.0107 152.82 30.2164 152.82 41.5388ZM143.73 41.5388C143.73 34.5129 138.327 29.7057 132.055 29.7057C125.784 29.7057 120.381 34.5129 120.381 41.5388C120.381 48.4942 125.784 53.3718 132.055 53.3718C138.327 53.3718 143.73 48.4854 143.73 41.5388Z" fill="black"/>
<path d="M195.749 23.1905V58.2496C195.749 72.671 186.734 78.5609 176.076 78.5609C166.044 78.5609 160.006 72.2305 157.729 67.0538L165.643 63.946C167.052 67.1241 170.505 70.8749 176.067 70.8749C182.889 70.8749 187.117 66.9042 187.117 59.4291V56.6206H186.8C184.765 58.9887 180.846 61.0581 175.899 61.0581C165.55 61.0581 156.068 52.553 156.068 41.6092C156.068 30.5862 165.55 22.0107 175.899 22.0107C180.836 22.0107 184.756 24.0797 186.8 26.3777H187.117V23.1993H195.749V23.1905ZM187.761 41.6092C187.761 34.733 182.898 29.7057 176.711 29.7057C170.439 29.7057 165.185 34.733 165.185 41.6092C165.185 48.4149 170.439 53.3718 176.711 53.3718C182.898 53.3718 187.761 48.4149 187.761 41.6092Z" fill="black"/>
<path d="M209.866 0V57.2283H201V0H209.866Z" fill="black"/>
<path d="M244.531 47.966L251.586 52.4034C249.309 55.5817 243.821 61.0582 234.34 61.0582C222.58 61.0582 213.798 52.4826 213.798 41.53C213.798 29.9171 222.655 22.002 233.322 22.002C244.064 22.002 249.318 30.0667 251.035 34.4249L251.978 36.6436L224.307 47.4554C226.426 51.3733 229.72 53.3718 234.34 53.3718C238.968 53.3718 242.178 51.2236 244.531 47.966ZM222.814 40.9401L241.311 33.6941C240.294 31.2554 237.233 29.5561 233.63 29.5561C229.01 29.5561 222.58 33.4036 222.814 40.9401Z" fill="black"/>
<path d="M32.9344 36.4588V28.1739H62.5281C62.8173 29.6178 62.9663 31.3259 62.9663 33.1748C62.9663 39.3907 61.1651 47.0769 55.3605 52.5532C49.7143 58.1 42.5003 61.0582 32.9438 61.0582C15.2306 61.0582 0.335938 47.4466 0.335938 30.736C0.335938 14.0253 15.2306 0.413818 32.9438 0.413818C42.7429 0.413818 49.7236 4.04121 54.9685 8.76917L48.7717 14.6152C45.0107 11.2872 39.9151 8.69869 32.9344 8.69869C19.9995 8.69869 9.88313 18.5332 9.88313 30.736C9.88313 42.9388 19.9995 52.7733 32.9344 52.7733C41.3243 52.7733 46.1026 49.5949 49.1637 46.7071C51.6461 44.3651 53.2793 41.0195 53.9233 36.45L32.9344 36.4588Z" fill="black"/>
</svg>
